<svg xmlns="http://www.w3.org/2000/svg" fill="#0e7490" viewBox="8.7 -336 2418.582352915407 612.7864013671874">
  <path d="M236.70-15L236.70-15Q138.30 0.30 99.30 30.30L99.30 30.30Q84.60 42 84.60 56.70L84.60 56.70Q84.60 68.70 94.80 76.80L94.80 76.80Q105.60 85.80 123.90 86.10L123.90 86.10Q145.80 86.70 174.60 70.20L174.60 70.20Q192.90 60 211.20 37.20L211.20 37.20Q217.50 29.40 225.45 18.15Q233.40 6.90 243-9L243-9Q248.10-10.50 251.85-11.70Q255.60-12.90 258-13.20L258-13.20Q259.80-13.50 261.90-15.30Q264-17.10 266.70-20.40L266.70-20.40Q272.40-27.90 272.40-30.60L272.40-30.60Q272.40-31.50 271.50-33.75Q270.60-36 269.25-38.40Q267.90-40.80 266.10-43.35Q264.30-45.90 262.80-47.40L262.80-47.40Q273.30-70.80 282.60-90.90Q291.90-111 300-129L300-129Q303.30-132.30 305.70-134.70Q308.10-137.10 310.50-138.60L310.50-138.60Q313.50-141.60 310.80-147.90L310.80-147.90Q310.20-148.50 309.60-148.50L309.60-148.50Q303.90-148.50 300.90-144L300.90-144Q297.60-138.90 294.75-134.70Q291.90-130.50 289.50-127.20L289.50-127.20L288.90-125.70Q274.20-110.40 253.35-93.60Q232.50-76.80 205.20-57.90L205.20-57.90Q146.10-17.10 110.10-7.20L110.10-7.20Q102.90-5.40 100.20-5.40L100.20-5.40Q96-5.40 96-9.60L96-9.60Q96-11.40 96.75-14.25Q97.50-17.10 99.30-20.70L99.30-20.70Q104.70-33.90 129.60-69.90L129.60-69.90Q144.90-91.50 154.80-106.65Q164.70-121.80 169.80-130.50L169.80-130.50Q180.30-147.60 185.25-161.25Q190.20-174.90 190.20-185.10L190.20-185.10Q190.20-200.40 175.20-214.80L175.20-214.80Q160.50-228.90 142.80-228.60L142.80-228.60Q106.50-227.70 63.90-199.20L63.90-199.20Q23.40-172.20 12-142.20L12-142.20Q8.70-134.40 8.70-123.30L8.70-123.30Q8.70-112.80 12-105.90L12-105.90Q17.40-93 37.50-89.40L37.50-89.40Q43.20-88.50 43.20-90.30L43.20-90.30Q43.20-92.10 39-92.40L39-92.40Q36.30-92.70 33.15-94.05Q30-95.40 26.70-97.80L26.70-97.80Q18.90-102.90 16.50-108.30Q14.10-113.70 14.10-120.60L14.10-120.60Q14.10-129 18.90-140.40L18.90-140.40Q32.70-170.40 76.20-197.40L76.20-197.40Q97.50-210.30 115.35-216.45Q133.20-222.60 147.90-221.10L147.90-221.10Q180.90-218.70 180.90-192L180.90-192Q180.90-170.10 160.80-135.60L160.80-135.60Q156.90-129.30 147-114Q137.10-98.70 120.90-74.70L120.90-74.70Q96.30-38.40 91.20-21.90L91.20-21.90Q90-19.20 90-15.90L90-15.90Q90-12 91.35-8.55Q92.70-5.10 94.95-2.70Q97.20-0.30 99.75 0.90Q102.30 2.10 105 1.20L105 1.20Q123.60-3.90 147.30-16.20Q171-28.50 200.10-48.30L200.10-48.30Q244.80-78.90 282.90-112.50L282.90-112.50Q284.40-114 284.70-112.80L284.70-112.80Q285-112.50 284.10-109.50L284.10-109.50Q278.40-97.20 272.55-85.05Q266.70-72.90 260.70-60.60L260.70-60.60Q242.40-22.50 236.70-15ZM232.80-7.20L232.80-7.20Q223.20 7.80 216.75 17.40Q210.30 27 207 31.80L207 31.80Q190.20 53.40 171.90 65.70L171.90 65.70Q148.20 81.30 123.30 81.60L123.30 81.60Q89.10 82.20 89.10 59.70L89.10 59.70Q89.10 46.20 102.90 35.40L102.90 35.40Q124.50 18.30 172.20 5.70L172.20 5.70Q188.40 1.20 203.40-1.95Q218.40-5.10 232.80-7.20ZM261-44.10L261-44.10Q266.70-36.30 266.40-30L266.40-30Q266.10-24 259.80-20.40L259.80-20.40Q255.60-19.20 252.60-18.30Q249.60-17.40 247.20-17.10L247.20-17.10Q251.70-25.80 255.15-32.40Q258.60-39 261-44.10Z"/>
  <path d="M297.40 5.10L297.40 5.10Q323.80 1.20 358.90-29.10L358.90-29.10Q376.90-44.40 385.75-57.45Q394.60-70.50 395.50-81.90L395.50-81.90Q395.50-82.50 395.20-83.40Q394.90-84.30 394.60-85.20L394.60-85.20Q394-86.10 394.60-87L394.60-87Q397.30-90.60 406.60-90.60L406.60-90.60Q411.10-90.60 411.10-92.40L411.10-92.40Q411.10-93 406.60-93.60L406.60-93.60Q394-93.90 384.25-94.20Q374.50-94.50 367.60-94.80L367.60-94.80Q367-95.10 366.55-95.40Q366.10-95.70 365.50-96L365.50-96Q356.80-101.70 352-101.40L352-101.40Q345.40-101.10 338.80-94.80L338.80-94.80Q336.70-93.60 335.50-93.60L335.50-93.60Q335.20-93.60 324.10-93.30L324.10-93.30Q317.20-93 316.30-91.50Q315.40-90 315.40-89.10L315.40-89.10Q315.40-87.30 318.10-85.35Q320.80-83.40 323.50-81.90L323.50-81.90Q325.30-81.30 324.10-79.20L324.10-79.20Q284.50-30.60 283.90-5.70L283.90-5.70Q283.90-3.30 285.25-1.20Q286.60 0.90 288.55 2.40Q290.50 3.90 292.90 4.65Q295.30 5.40 297.40 5.10ZM293.20-10.80L293.20-10.80Q310.60-52.20 342.70-81.90L342.70-81.90Q347.20-84.90 347.80-84.60L347.80-84.60Q353.20-86.70 359.50-87.45Q365.80-88.20 373-87.30L373-87.30Q386.50-85.80 384.40-76.80L384.40-76.80Q379.90-54.90 349.90-28.20L349.90-28.20Q321.40-2.10 301 1.20L301 1.20Q291.40 3 291.40-4.20L291.40-4.20Q291.40-7.50 293.20-10.80Z"/>
  <path d="M519.80-89.10L519.80-89.10Q520.70-90.60 520.55-93.45Q520.40-96.30 519.20-98.85Q518-101.40 515.90-102.30Q513.80-103.20 511.10-100.50L511.10-100.50Q502.10-92.40 490.40-80.10Q478.70-67.80 465.95-54.90Q453.20-42 440.15-30.15Q427.10-18.30 415.40-11.10L415.40-11.10Q407.90-6.90 404.15-10.35Q400.40-13.80 404-26.10L404-26.10Q406.10-34.20 411.65-45Q417.20-55.80 424.10-67.20Q431-78.60 438.65-89.70Q446.30-100.80 453.20-109.20L453.20-109.20Q455.90-112.80 455.60-114.75Q455.30-116.70 453.50-117.30Q451.70-117.90 449.15-117.15Q446.60-116.40 445.10-114.60L445.10-114.60Q441.20-110.10 435.95-103.05Q430.70-96 424.70-87.30Q418.70-78.60 412.85-68.85Q407-59.10 402.05-49.65Q397.10-40.20 393.95-31.20Q390.80-22.20 390.20-15.30L390.20-15.30Q389.60-7.80 394.70-2.55Q399.80 2.70 407.90 0L407.90 0Q412.70-1.50 422.75-9.75Q432.80-18 444.50-28.65Q456.20-39.30 467.75-50.25Q479.30-61.20 486.50-68.40L486.50-68.40Q491.90-73.80 493.70-70.95Q495.50-68.10 493.70-63.60L493.70-63.60Q491.60-58.50 489.05-52.65Q486.50-46.80 484.40-40.80Q482.30-34.80 480.95-28.50Q479.60-22.20 479.60-16.50L479.60-16.50Q479.60-13.50 481.25-10.65Q482.90-7.80 485.15-5.55Q487.40-3.30 490.10-2.10Q492.80-0.90 494.60-1.50L494.60-1.50Q498.50-3 502.85-5.85Q507.20-8.70 510.20-12L510.20-12Q513.80-15.30 513.35-17.85Q512.90-20.40 508.10-17.10L508.10-17.10Q506.30-15.90 503.30-14.55Q500.30-13.20 498.20-12.60L498.20-12.60Q496.10-12 493.85-11.40Q491.60-10.80 490.10-11.25Q488.60-11.70 487.85-14.10Q487.10-16.50 488-21.90L488-21.90Q488.90-27.90 492.50-36.90Q496.10-45.90 500.75-55.35Q505.40-64.80 510.50-73.80Q515.60-82.80 519.80-89.10Z"/>
  <path d="M524.70 3.90L524.70 3.90Q528.60 1.50 531.60 0.15Q534.60-1.20 537-2.10L537-2.10Q539.40-3.30 539.40-4.20L539.40-4.20Q574.20-61.20 618.60-85.80L618.60-85.80Q628.80-91.20 634.80-88.50L634.80-88.50Q635.70-87.90 637.20-88.65Q638.70-89.40 640.05-90.75Q641.40-92.10 642.45-93.75Q643.50-95.40 643.50-96.30L643.50-96.30Q643.50-96.60 643.20-96.90L643.20-96.90Q638.70-99 629.40-98.70L629.40-98.70Q618.60-94.20 599.40-78.60L599.40-78.60Q580.80-63.60 569.10-49.50L569.10-49.50Q568.20-48.30 565.50-47.10L565.50-47.10Q562.20-45.90 562.20-47.40L562.20-47.40Q562.20-48.60 563.10-50.40L563.10-50.40Q566.40-57 573.15-66.75Q579.90-76.50 589.50-89.70L589.50-89.70Q591-91.20 589.80-93L589.80-93Q589.20-94.50 587.40-94.50L587.40-94.50Q586.50-94.50 586.20-93.90L586.20-93.90Q567.30-82.50 563.70-81.30L563.70-81.30Q563.40-80.40 563.70-79.20L563.70-79.20Q564.60-76.50 564.60-75.90L564.60-75.90Q564.60-72.90 562.80-68.40L562.80-68.40Q552.30-44.10 523.20 0.90L523.20 0.90Q522.30 2.40 522.90 3.90L522.90 3.90Q523.20 5.70 524.70 3.90Z"/>
  <path d=""/>
  <path d="M782 166.80L782 166.80Q802.10 166.80 824.75 154.80Q847.40 142.80 873.50 119.40L873.50 119.40Q924.80 72.90 930.80 33.30L930.80 33.30Q931.40 26.40 922.40 12.90L922.40 12.90Q913.70 0 904.10 0L904.10 0Q901.70 0 900.50 0.30L900.50 0.30Q892.70 3.60 889.85 5.40Q887 7.20 885.50 9.60L885.50 9.60Q884.90 12.30 887.90 12.30L887.90 12.30Q889.40 12.30 892.70 10.20Q896 8.10 900.50 7.50L900.50 7.50Q920.60 4.20 920.60 32.40L920.60 32.40Q918.20 48.60 907.55 66.60Q896.90 84.60 877.10 105.30L877.10 105.30Q857.90 126 839.30 138.90Q820.70 151.80 801.80 157.80L801.80 157.80Q788.90 161.70 778.40 161.70L778.40 161.70Q741.50 161.70 741.50 109.50L741.50 109.50Q741.50 105.90 741.50 102.30L741.50 102.30Q741.50 99 741.80 95.10L741.80 95.10Q744.20 67.20 756.20 32.25Q768.20-2.70 788.90-45.60L788.90-45.60Q802.40-72.60 816.50-95.70Q830.60-118.80 846.50-142.20L846.50-142.20Q848.90-146.10 854-147L854-147Q882.20-148.50 904.25-149.85Q926.30-151.20 943.40-151.80L943.40-151.80Q946.10-152.10 947.75-154.65Q949.40-157.20 949.40-157.80L949.40-157.80Q948.50-158.70 945.80-158.70L945.80-158.70Q943.40-158.70 933.65-158.85Q923.90-159 906.20-159L906.20-159L862.70-159Q855.80-159 860.60-165.90L860.60-165.90Q925.70-255.30 953.90-261L953.90-261Q956.90-261.90 956.90-263.10L956.90-263.10Q956.90-265.80 953.60-265.80L953.60-265.80Q950-265.80 946.85-264.45Q943.70-263.10 936.50-260.70L936.50-260.70Q921.50-255 919.70-252.90L919.70-252.90Q899-228.90 880.10-206.55Q861.20-184.20 846.80-161.70L846.80-161.70Q846.20-160.80 847.10-159.90Q848-159 846.80-159L846.80-159Q832.40-159 824.45-158.10Q816.50-157.20 815.60-155.40L815.60-155.40Q813.20-150.30 824-146.10L824-146.10Q829.40-143.10 829.40-137.70L829.40-137.70Q829.40-132.60 825.80-128.70L825.80-128.70Q810.50-106.50 795.20-78.60Q779.90-50.70 764.60-15.90L764.60-15.90Q730.10 63 730.10 105.30L730.10 105.30Q730.10 118.20 732.20 129.15Q734.30 140.10 742.40 148.80L742.40 148.80Q758 166.80 782 166.80Z"/>
  <path d="M960-92.40L960-92.40Q961.50-94.50 960.45-95.10Q959.40-95.70 957.90-93.60L957.90-93.60Q954.30-90.30 947.85-87Q941.40-83.70 935.10-83.10L935.10-83.10Q930.30-82.50 923.55-82.20Q916.80-81.90 909-81.75Q901.20-81.60 892.50-81.60L892.50-81.60Q884.10-81.60 876-81.60L876-81.60Q891-84 902.70-89.70Q914.40-95.40 918.90-103.80L918.90-103.80Q921.60-108.30 921.15-113.70Q920.70-119.10 918.15-123.45Q915.60-127.80 911.10-130.05Q906.60-132.30 900.90-130.50L900.90-130.50Q890.40-126.30 877.35-115.95Q864.30-105.60 852.45-91.35Q840.60-77.10 832.35-60.60Q824.10-44.10 823.20-27.60L823.20-27.60Q822.90-21.60 825.90-16.35Q828.90-11.10 833.40-7.20Q837.90-3.30 843.30-1.35Q848.70 0.60 853.20-0.30L853.20-0.30Q858.60-1.20 864.45-3.45Q870.30-5.70 875.70-8.40Q881.10-11.10 885.60-13.95Q890.10-16.80 893.40-19.20L893.40-19.20Q895.80-20.70 894.60-21.75Q893.40-22.80 891-21.30L891-21.30Q882.90-16.80 871.65-12.60Q860.40-8.40 850.50-6.90L850.50-6.90Q846.60-6.60 842.85-7.35Q839.10-8.10 836.25-10.35Q833.40-12.60 831.75-16.80Q830.10-21 830.40-27.60L830.40-27.60Q830.70-34.80 833.10-41.55Q835.50-48.30 838.80-54.60Q842.10-60.90 845.85-66.45Q849.60-72 852.90-76.50L852.90-76.50Q861.90-76.50 873.90-76.50L873.90-76.50Q885.90-76.50 897.90-76.80Q909.90-77.10 919.95-77.40Q930-77.70 935.10-78.60L935.10-78.60Q943.50-79.80 950.25-84.45Q957-89.10 960-92.40ZM911.70-106.50L911.70-106.50Q908.10-101.10 901.95-96.60Q895.80-92.10 888.30-88.65Q880.80-85.20 872.40-83.40Q864-81.60 856.20-81.60L856.20-81.60Q866.40-92.70 877.80-103.05Q889.20-113.40 900.30-119.70L900.30-119.70Q904.80-122.10 908.25-122.25Q911.70-122.40 913.50-120.45Q915.30-118.50 915-114.90Q914.70-111.30 911.70-106.50Z"/>
  <path d="M1052.50-89.40L1052.50-89.40Q1054.90-90.60 1055.50-92.55Q1056.10-94.50 1055.35-96Q1054.60-97.50 1053.10-98.40Q1051.60-99.30 1049.50-98.10L1049.50-98.10Q1043.50-95.10 1033.45-88.50Q1023.40-81.90 1012.30-74.10Q1001.20-66.30 991-58.65Q980.80-51 975.10-46.50L975.10-46.50Q973.60-50.70 972.55-56.85Q971.50-63 970.45-69.45Q969.40-75.90 968.50-82.35Q967.60-88.80 966.70-93.60L966.70-93.60Q966.40-96.30 965.20-96.75Q964-97.20 962.80-96.45Q961.60-95.70 960.70-94.05Q959.80-92.40 960.10-90.60L960.10-90.60Q960.40-86.10 961.30-79.50Q962.20-72.90 963.40-66Q964.60-59.10 965.95-52.35Q967.30-45.60 968.50-41.10L968.50-41.10Q961.30-35.10 952.60-27.75Q943.90-20.40 934.90-12Q925.90-3.60 917.05 5.25Q908.20 14.10 900.70 22.80L900.70 22.80Q893.80 31.50 887.80 40.05Q881.80 48.60 878.65 57.15Q875.50 65.70 875.95 74.10Q876.40 82.50 881.80 90.30L881.80 90.30Q885.40 95.40 890.95 99Q896.50 102.60 901 103.50L901 103.50Q903.40 104.40 904.15 103.20Q904.90 102 902.50 101.10L902.50 101.10Q897.40 99.90 892.45 96.90Q887.50 93.90 884.20 87.90L884.20 87.90Q879.40 80.40 880.45 71.70Q881.50 63 885.70 54.60Q889.90 46.20 895.60 38.70Q901.30 31.20 905.50 26.40L905.50 26.40Q913.90 16.80 922.90 7.95Q931.90-0.90 940.45-8.70Q949-16.50 956.80-22.80Q964.60-29.10 970.90-33.60L970.90-33.60Q972.70-27.90 975.70-20.25Q978.70-12.60 982.15-4.95Q985.60 2.70 989.20 9.30Q992.80 15.90 995.50 19.20L995.50 19.20Q998.80 22.50 1000.45 21.90Q1002.10 21.30 998.50 16.80L998.50 16.80Q995.20 12.90 991.90 5.55Q988.60-1.80 985.75-9.90Q982.90-18 980.50-25.80Q978.10-33.60 977.20-38.40L977.20-38.40Q983.50-43.20 993.70-50.70Q1003.90-58.20 1014.70-65.85Q1025.50-73.50 1035.70-80.10Q1045.90-86.70 1052.50-89.40Z"/>
  <path d="M1054.70 166.80L1054.70 166.80Q1074.80 166.80 1097.45 154.80Q1120.10 142.80 1146.20 119.40L1146.20 119.40Q1197.50 72.90 1203.50 33.30L1203.50 33.30Q1204.10 26.40 1195.10 12.90L1195.10 12.90Q1186.40 0 1176.80 0L1176.80 0Q1174.40 0 1173.20 0.30L1173.20 0.30Q1165.40 3.60 1162.55 5.40Q1159.70 7.20 1158.20 9.60L1158.20 9.60Q1157.60 12.30 1160.60 12.30L1160.60 12.30Q1162.10 12.30 1165.40 10.20Q1168.70 8.10 1173.20 7.50L1173.20 7.50Q1193.30 4.20 1193.30 32.40L1193.30 32.40Q1190.90 48.60 1180.25 66.60Q1169.60 84.60 1149.80 105.30L1149.80 105.30Q1130.60 126 1112 138.90Q1093.40 151.80 1074.50 157.80L1074.50 157.80Q1061.60 161.70 1051.10 161.70L1051.10 161.70Q1014.20 161.70 1014.20 109.50L1014.20 109.50Q1014.20 105.90 1014.20 102.30L1014.20 102.30Q1014.20 99 1014.50 95.10L1014.50 95.10Q1016.90 67.20 1028.90 32.25Q1040.90-2.70 1061.60-45.60L1061.60-45.60Q1075.10-72.60 1089.20-95.70Q1103.30-118.80 1119.20-142.20L1119.20-142.20Q1121.60-146.10 1126.70-147L1126.70-147Q1154.90-148.50 1176.95-149.85Q1199-151.20 1216.10-151.80L1216.10-151.80Q1218.80-152.10 1220.45-154.65Q1222.10-157.20 1222.10-157.80L1222.10-157.80Q1221.20-158.70 1218.50-158.70L1218.50-158.70Q1216.10-158.70 1206.35-158.85Q1196.60-159 1178.90-159L1178.90-159L1135.40-159Q1128.50-159 1133.30-165.90L1133.30-165.90Q1198.40-255.30 1226.60-261L1226.60-261Q1229.60-261.90 1229.60-263.10L1229.60-263.10Q1229.60-265.80 1226.30-265.80L1226.30-265.80Q1222.70-265.80 1219.55-264.45Q1216.40-263.10 1209.20-260.70L1209.20-260.70Q1194.20-255 1192.40-252.90L1192.40-252.90Q1171.70-228.90 1152.80-206.55Q1133.90-184.20 1119.50-161.70L1119.50-161.70Q1118.90-160.80 1119.80-159.90Q1120.70-159 1119.50-159L1119.50-159Q1105.10-159 1097.15-158.10Q1089.20-157.20 1088.30-155.40L1088.30-155.40Q1085.90-150.30 1096.70-146.10L1096.70-146.10Q1102.10-143.10 1102.10-137.70L1102.10-137.70Q1102.10-132.60 1098.50-128.70L1098.50-128.70Q1083.20-106.50 1067.90-78.60Q1052.60-50.70 1037.30-15.90L1037.30-15.90Q1002.80 63 1002.80 105.30L1002.80 105.30Q1002.80 118.20 1004.90 129.15Q1007.00 140.10 1015.10 148.80L1015.10 148.80Q1030.70 166.80 1054.70 166.80Z"/>
  <path d=""/>
  <path d="M1467.10-86.10L1467.10-86.10Q1436.50-86.40 1401.40-64.50L1401.40-64.50Q1366.30-42.30 1352.20-13.50L1352.20-13.50Q1349.50-8.40 1349.50-4.20L1349.50-4.20Q1349.50 6.60 1360.30 6.60L1360.30 6.60Q1363.60 6.60 1366.00 5.70L1366.00 5.70Q1374.70 1.80 1387.30-5.85Q1399.90-13.50 1417.00-25.50L1417.00-25.50Q1430.50-35.10 1439.65-41.85Q1448.80-48.60 1453.90-53.40L1453.90-53.40Q1452.70-49.80 1451.65-45.45Q1450.60-41.10 1449.10-36L1449.10-36Q1439.80-2.70 1432.90 12.90L1432.90 12.90Q1342.90 30 1260.70 62.70L1260.70 62.70Q1139.80 110.40 1117 164.10L1117 164.10Q1112.20 175.50 1112.20 186.60L1112.20 186.60Q1112.20 222 1148.50 250.50L1148.50 250.50Q1184.50 279 1227.70 276.60L1227.70 276.60Q1353.70 268.50 1442.20 16.20L1442.20 16.20Q1459.60 12.30 1481.65 10.65Q1503.70 9 1531.00 9L1531.00 9Q1537.90 9 1543.45 9.15Q1549.00 9.30 1553.20 9.60L1553.20 9.60Q1567.90 10.80 1567.90 21.60L1567.90 21.60Q1567.90 34.80 1550.20 51.30L1550.20 51.30Q1547.20 53.40 1547.20 55.20L1547.20 55.20Q1547.20 55.50 1547.80 55.50L1547.80 55.50Q1549.60 55.50 1552.30 53.10L1552.30 53.10Q1567.90 40.80 1571.80 33.30L1571.80 33.30Q1573.30 30.30 1573.30 26.70L1573.30 26.70Q1573.30 22.80 1571.50 19.20Q1569.70 15.60 1566.85 12.45Q1564.00 9.30 1560.55 7.20Q1557.10 5.10 1553.80 4.50L1553.80 4.50Q1549.60 3.90 1544.05 3.45Q1538.50 3 1531.00 3L1531.00 3Q1490.20 3 1444.30 11.10L1444.30 11.10Q1453.60-15.90 1460.35-36.30Q1467.10-56.70 1471.90-71.10L1471.90-71.10Q1474.60-74.70 1475.20-78.30L1475.20-78.30Q1475.20-80.70 1473.25-82.80Q1471.30-84.90 1468.90-85.50L1468.90-85.50Q1468.30-86.10 1467.10-86.10ZM1124.20 172.20L1124.20 172.20Q1144.00 122.70 1242.10 77.10L1242.10 77.10Q1323.40 40.20 1431.70 17.40L1431.70 17.40Q1418.50 57.90 1401.85 93.90Q1385.20 129.90 1365.10 162.60L1365.10 162.60Q1299.70 268.50 1227.10 271.20L1227.10 271.20Q1185.40 273 1152.10 247.50L1152.10 247.50Q1120.60 223.20 1120.60 191.40L1120.60 191.40Q1120.60 181.80 1124.20 172.20ZM1448.80-54.60L1448.80-54.60Q1442.80-49.20 1433.65-42.15Q1424.50-35.10 1412.20-26.40L1412.20-26.40Q1381.60-4.50 1375.30-4.50L1375.30-4.50Q1368.10-4.50 1368.10-14.10L1368.10-14.10Q1368.10-15.60 1368.25-16.50Q1368.40-17.40 1368.70-18.90L1368.70-18.90Q1375.00-37.50 1397.80-55.50L1397.80-55.50Q1419.40-72 1441.30-77.10L1441.30-77.10Q1451.80-79.80 1455.10-78.60L1455.10-78.60Q1457.20-78.30 1457.20-72.90L1457.20-72.90Q1456.90-72.60 1456.90-71.70L1456.90-71.70Q1456.90-71.40 1456.90-71.40L1456.90-71.40Q1457.20-71.40 1457.20-71.10L1457.20-71.10Q1456.30-60.30 1448.80-54.60Z"/>
  <path d="M1494.20 5.10L1494.20 5.10Q1520.60 1.20 1555.70-29.10L1555.70-29.10Q1573.70-44.40 1582.55-57.45Q1591.40-70.50 1592.30-81.90L1592.30-81.90Q1592.30-82.50 1592-83.40Q1591.70-84.30 1591.40-85.20L1591.40-85.20Q1590.80-86.10 1591.40-87L1591.40-87Q1594.10-90.60 1603.40-90.60L1603.40-90.60Q1607.90-90.60 1607.90-92.40L1607.90-92.40Q1607.90-93 1603.40-93.60L1603.40-93.60Q1590.80-93.90 1581.05-94.20Q1571.30-94.50 1564.40-94.80L1564.40-94.80Q1563.80-95.10 1563.35-95.40Q1562.90-95.70 1562.30-96L1562.30-96Q1553.60-101.70 1548.80-101.40L1548.80-101.40Q1542.20-101.10 1535.60-94.80L1535.60-94.80Q1533.50-93.60 1532.30-93.60L1532.30-93.60Q1532-93.60 1520.90-93.30L1520.90-93.30Q1514-93 1513.10-91.50Q1512.20-90 1512.20-89.10L1512.20-89.10Q1512.20-87.30 1514.90-85.35Q1517.60-83.40 1520.30-81.90L1520.30-81.90Q1522.10-81.30 1520.90-79.20L1520.90-79.20Q1481.30-30.60 1480.70-5.70L1480.70-5.70Q1480.70-3.30 1482.05-1.20Q1483.40 0.90 1485.35 2.40Q1487.30 3.90 1489.70 4.65Q1492.10 5.40 1494.20 5.10ZM1490-10.80L1490-10.80Q1507.40-52.20 1539.50-81.90L1539.50-81.90Q1544-84.90 1544.60-84.60L1544.60-84.60Q1550-86.70 1556.30-87.45Q1562.60-88.20 1569.80-87.30L1569.80-87.30Q1583.30-85.80 1581.20-76.80L1581.20-76.80Q1576.70-54.90 1546.70-28.20L1546.70-28.20Q1518.20-2.10 1497.80 1.20L1497.80 1.20Q1488.20 3 1488.20-4.20L1488.20-4.20Q1488.20-7.50 1490-10.80Z"/>
  <path d="M1732.80-92.40L1732.80-92.40Q1734.30-94.50 1733.25-95.10Q1732.20-95.70 1730.70-93.60L1730.70-93.60Q1727.10-90.30 1720.65-87Q1714.20-83.70 1707.90-83.10L1707.90-83.10Q1703.10-82.50 1696.35-82.20Q1689.60-81.90 1681.80-81.75Q1674-81.60 1665.30-81.60L1665.30-81.60Q1656.90-81.60 1648.80-81.60L1648.80-81.60Q1663.80-84 1675.50-89.70Q1687.20-95.40 1691.70-103.80L1691.70-103.80Q1694.40-108.30 1693.95-113.70Q1693.50-119.10 1690.95-123.45Q1688.40-127.80 1683.90-130.05Q1679.40-132.30 1673.70-130.50L1673.70-130.50Q1663.20-126.30 1650.15-115.95Q1637.10-105.60 1625.25-91.35Q1613.40-77.10 1605.15-60.60Q1596.90-44.10 1596-27.60L1596-27.60Q1595.70-21.60 1598.70-16.35Q1601.70-11.10 1606.20-7.20Q1610.70-3.30 1616.10-1.35Q1621.50 0.60 1626-0.30L1626-0.30Q1631.40-1.20 1637.25-3.45Q1643.10-5.70 1648.50-8.40Q1653.90-11.10 1658.40-13.95Q1662.90-16.80 1666.20-19.20L1666.20-19.20Q1668.60-20.70 1667.40-21.75Q1666.20-22.80 1663.80-21.30L1663.80-21.30Q1655.70-16.80 1644.45-12.60Q1633.20-8.40 1623.30-6.90L1623.30-6.90Q1619.40-6.60 1615.65-7.35Q1611.90-8.10 1609.05-10.35Q1606.20-12.60 1604.55-16.80Q1602.90-21 1603.20-27.60L1603.20-27.60Q1603.50-34.80 1605.90-41.55Q1608.30-48.30 1611.60-54.60Q1614.90-60.90 1618.65-66.45Q1622.40-72 1625.70-76.50L1625.70-76.50Q1634.70-76.50 1646.70-76.50L1646.70-76.50Q1658.70-76.50 1670.70-76.80Q1682.70-77.10 1692.75-77.40Q1702.80-77.70 1707.90-78.60L1707.90-78.60Q1716.30-79.80 1723.05-84.45Q1729.80-89.10 1732.80-92.40ZM1684.50-106.50L1684.50-106.50Q1680.90-101.10 1674.75-96.60Q1668.60-92.10 1661.10-88.65Q1653.60-85.20 1645.20-83.40Q1636.80-81.60 1629-81.60L1629-81.60Q1639.20-92.70 1650.60-103.05Q1662-113.40 1673.10-119.70L1673.10-119.70Q1677.60-122.10 1681.05-122.25Q1684.50-122.40 1686.30-120.45Q1688.10-118.50 1687.80-114.90Q1687.50-111.30 1684.50-106.50Z"/>
  <path d="M1740.40-31.80L1740.40-31.80Q1736.50-33.90 1730.20-42.90L1730.20-42.90Q1724.50-52.20 1723.60-58.20L1723.60-58.20Q1721.50-72.90 1750.00-92.40L1750.00-92.40Q1772.50-108.30 1789.60-112.50L1789.60-112.50Q1791.10-112.80 1792.75-112.95Q1794.40-113.10 1796.20-113.10L1796.20-113.10Q1799.50-113.10 1804.30-112.20Q1809.10-111.30 1816.00-108.90L1816.00-108.90Q1818.10-108.30 1822.75-111.30Q1827.40-114.30 1829.50-117.30L1829.50-117.30Q1830.70-118.50 1829.50-121.20L1829.50-121.20Q1828.00-123 1826.20-123L1826.20-123Q1809.40-123.30 1790.35-117.15Q1771.30-111 1749.70-98.10L1749.70-98.10Q1706.50-72.90 1708.90-52.80L1708.90-52.80Q1709.50-48.60 1711.15-44.70Q1712.80-40.80 1716.10-36.60L1716.10-36.60L1725.70-23.70Q1690.30 0.90 1685.20 7.20L1685.20 7.20Q1683.10 10.80 1687.00 11.10L1687.00 11.10Q1688.50 11.70 1691.05 11.10Q1693.60 10.50 1697.80 9.90L1697.80 9.90Q1700.50 10.80 1704.10 10.80L1704.10 10.80Q1714.60 10.80 1731.40 3.30L1731.40 3.30Q1751.20-5.10 1751.20-13.50L1751.20-13.50Q1751.20-15.60 1749.55-19.05Q1747.90-22.50 1744.00-27.60L1744.00-27.60Q1768.00-41.40 1790.05-50.25Q1812.10-59.10 1833.10-63.30L1833.10-63.30L1832.80-63.60Q1810.30-59.70 1787.50-52.50Q1764.70-45.30 1740.40-31.80ZM1700.50 4.20L1700.50 4.20Q1702.00 1.80 1705.60-1.20Q1709.20-4.20 1715.20-8.40L1715.20-8.40Q1725.10-15.60 1729.90-18.60L1729.90-18.60Q1736.80-12.30 1736.80-7.50L1736.80-7.50Q1736.80-5.70 1735.60-4.20L1735.60-4.20Q1734.10-1.80 1730.05 0Q1726.00 1.80 1720.00 4.20L1720.00 4.20Q1707.10 8.70 1701.70 7.50L1701.70 7.50Q1698.10 6.90 1700.50 4.20Z"/>
  <path d=""/>
  <path d="M2031.30-129L2031.30-129Q2036.10-128.70 2041.20-128.55Q2046.30-128.40 2051.40-128.40L2051.40-128.40Q2168.40-128.40 2289-185.10L2289-185.10Q2322-200.40 2338.50-222.30L2338.50-222.30Q2353.80-242.10 2353.80-264.30L2353.80-264.30Q2353.80-293.40 2329.20-314.40L2329.20-314.40Q2303.40-336 2265-336L2265-336Q2241.90-336 2218.50-327.60L2218.50-327.60Q2174.70-312.30 2132.55-274.05Q2090.40-235.80 2048.40-172.50L2048.40-172.50Q2019.00-166.20 2004.30-150.60L2004.30-150.60Q2003.40-149.40 2002.80-148.20Q2002.20-147 2002.20-145.20L2002.20-145.20Q2002.20-141 2005.50-136.50Q2008.80-132 2013.00-131.10L2013.00-131.10Q2015.70-130.50 2017.95-130.20Q2020.20-129.90 2021.70-129.60L2021.70-129.60Q2000.10-92.40 1983.45-61.65Q1966.80-30.90 1954.80-5.40L1954.80-5.40Q1954.50-4.50 1954.50-3L1954.50-3Q1954.50 1.80 1956.90 1.80L1956.90 1.80Q1957.80 1.80 1958.40 0.30L1958.40 0.30Q1961.10-3.30 1961.70-2.10L1961.70-2.10Q1975.20-18.30 2000.40-42.60L2000.40-42.60Q2030.40-71.40 2047.20-80.40L2047.20-80.40Q2050.50-82.50 2053.20-82.50L2053.20-82.50Q2057.70-82.50 2057.70-78.30L2057.70-78.30Q2057.70-75.90 2056.50-74.40L2056.50-74.40Q2030.10-39.60 2024.40-15.90L2024.40-15.90Q2022.90-9 2029.80-3.60L2029.80-3.60Q2035.50 1.80 2040.90 1.80L2040.90 1.80Q2058.30 1.80 2097.30-30L2097.30-30L2099.40-32.10Q2099.10-32.40 2099.10-32.40L2099.10-32.40Q2099.10-32.70 2098.80-33L2098.80-33Q2098.50-32.70 2097.75-32.40Q2097-32.10 2096.10-31.50L2096.10-31.50Q2062.80-6.30 2048.10-6.30L2048.10-6.30Q2040.00-6.30 2040.00-14.10L2040.00-14.10Q2040.00-24.90 2054.70-51.60L2054.70-51.60Q2061-62.70 2066.70-71.55Q2072.40-80.40 2077.50-86.70L2077.50-86.70Q2077.80-87 2077.80-88.20L2077.80-88.20Q2077.80-90.60 2075.10-92.85Q2072.40-95.10 2070.60-94.80L2070.60-94.80Q2060.10-92.10 2058.90-90.60L2058.90-90.60Q2049-89.70 2021.40-67.80L2021.40-67.80Q2010.00-58.20 1999.20-48.60Q1988.40-39 1978.80-29.40L1978.80-29.40Q1974.60-25.20 1972.20-22.50Q1969.80-19.80 1968.30-18.60L1968.30-18.60Q1985.10-49.20 2000.70-76.50Q2016.30-103.80 2031.30-129ZM2034.00-134.10L2034.00-134.10Q2077.80-208.50 2124-255.75Q2170.20-303 2220.60-324L2220.60-324Q2241.30-332.70 2263.20-332.70L2263.20-332.70Q2296.80-332.70 2322-314.70L2322-314.70Q2347.20-297.60 2347.20-271.50L2347.20-271.50Q2347.20-231.60 2284.80-195.30L2284.80-195.30Q2255.40-178.20 2223.90-165.90Q2192.40-153.60 2158.50-145.50L2158.50-145.50Q2131.80-139.50 2106.45-136.35Q2081.10-133.20 2056.20-133.20L2056.20-133.20Q2050.20-133.20 2044.65-133.50Q2039.10-133.80 2034.00-134.10ZM2024.70-134.70L2024.70-134.70Q2023.80-134.70 2021.25-135Q2018.70-135.30 2014.50-135.90L2014.50-135.90Q2007.90-136.80 2007.90-141.90L2007.90-141.90Q2007.90-145.20 2010.30-147.60L2010.30-147.60Q2016.30-154.50 2025.15-160.05Q2034.00-165.60 2046.60-169.20L2046.60-169.20Q2041.20-160.80 2035.65-152.10Q2030.10-143.40 2024.70-134.70Z"/>
  <path d="M2236.30-92.40L2236.30-92.40Q2237.80-94.50 2236.75-95.10Q2235.70-95.70 2234.20-93.60L2234.20-93.60Q2230.60-90.30 2224.15-87Q2217.70-83.70 2211.40-83.10L2211.40-83.10Q2206.60-82.50 2199.85-82.20Q2193.10-81.90 2185.30-81.75Q2177.50-81.60 2168.80-81.60L2168.80-81.60Q2160.40-81.60 2152.30-81.60L2152.30-81.60Q2167.30-84 2179-89.70Q2190.70-95.40 2195.20-103.80L2195.20-103.80Q2197.90-108.30 2197.45-113.70Q2197-119.10 2194.45-123.45Q2191.90-127.80 2187.40-130.05Q2182.90-132.30 2177.20-130.50L2177.20-130.50Q2166.70-126.30 2153.65-115.95Q2140.60-105.60 2128.75-91.35Q2116.90-77.10 2108.65-60.60Q2100.40-44.10 2099.50-27.60L2099.50-27.60Q2099.20-21.60 2102.20-16.35Q2105.20-11.10 2109.70-7.20Q2114.20-3.30 2119.60-1.35Q2125 0.60 2129.50-0.30L2129.50-0.30Q2134.90-1.20 2140.75-3.45Q2146.60-5.70 2152-8.40Q2157.40-11.10 2161.90-13.95Q2166.40-16.80 2169.70-19.20L2169.70-19.20Q2172.10-20.70 2170.90-21.75Q2169.70-22.80 2167.30-21.30L2167.30-21.30Q2159.20-16.80 2147.95-12.60Q2136.70-8.40 2126.80-6.90L2126.80-6.90Q2122.90-6.60 2119.15-7.35Q2115.40-8.10 2112.55-10.35Q2109.70-12.60 2108.05-16.80Q2106.40-21 2106.70-27.60L2106.70-27.60Q2107-34.80 2109.40-41.55Q2111.80-48.30 2115.10-54.60Q2118.40-60.90 2122.15-66.45Q2125.90-72 2129.20-76.50L2129.20-76.50Q2138.20-76.50 2150.20-76.50L2150.20-76.50Q2162.20-76.50 2174.20-76.80Q2186.20-77.10 2196.25-77.40Q2206.30-77.70 2211.40-78.60L2211.40-78.60Q2219.80-79.80 2226.55-84.45Q2233.30-89.10 2236.30-92.40ZM2188-106.50L2188-106.50Q2184.40-101.10 2178.25-96.60Q2172.10-92.10 2164.60-88.65Q2157.10-85.20 2148.70-83.40Q2140.30-81.60 2132.50-81.60L2132.50-81.60Q2142.70-92.70 2154.10-103.05Q2165.50-113.40 2176.60-119.70L2176.60-119.70Q2181.10-122.10 2184.55-122.25Q2188-122.40 2189.80-120.45Q2191.60-118.50 2191.30-114.90Q2191-111.30 2188-106.50Z"/>
  <path d="M2186.30 3.90L2186.30 3.90Q2190.20 1.50 2193.20 0.15Q2196.20-1.20 2198.60-2.10L2198.60-2.10Q2201.00-3.30 2201.00-4.20L2201.00-4.20Q2235.80-61.20 2280.20-85.80L2280.20-85.80Q2290.40-91.20 2296.40-88.50L2296.40-88.50Q2297.30-87.90 2298.80-88.65Q2300.30-89.40 2301.65-90.75Q2303.00-92.10 2304.05-93.75Q2305.10-95.40 2305.10-96.30L2305.10-96.30Q2305.10-96.60 2304.80-96.90L2304.80-96.90Q2300.30-99 2291.00-98.70L2291.00-98.70Q2280.20-94.20 2261.00-78.60L2261.00-78.60Q2242.40-63.60 2230.70-49.50L2230.70-49.50Q2229.80-48.30 2227.10-47.10L2227.10-47.10Q2223.80-45.90 2223.80-47.40L2223.80-47.40Q2223.80-48.60 2224.70-50.40L2224.70-50.40Q2228.00-57 2234.75-66.75Q2241.50-76.50 2251.10-89.70L2251.10-89.70Q2252.60-91.20 2251.40-93L2251.40-93Q2250.80-94.50 2249.00-94.50L2249.00-94.50Q2248.10-94.50 2247.80-93.90L2247.80-93.90Q2228.90-82.50 2225.30-81.30L2225.30-81.30Q2225.00-80.40 2225.30-79.20L2225.30-79.20Q2226.20-76.50 2226.20-75.90L2226.20-75.90Q2226.20-72.90 2224.40-68.40L2224.40-68.40Q2213.90-44.10 2184.80 0.90L2184.80 0.90Q2183.90 2.40 2184.50 3.90L2184.50 3.90Q2184.80 5.70 2186.30 3.90Z"/>
  <path d="M2426.40-92.40L2426.40-92.40Q2427.90-94.50 2426.85-95.10Q2425.80-95.70 2424.30-93.60L2424.30-93.60Q2420.70-90.30 2414.25-87Q2407.80-83.70 2401.50-83.10L2401.50-83.10Q2396.70-82.50 2389.95-82.20Q2383.20-81.90 2375.40-81.75Q2367.60-81.60 2358.90-81.60L2358.90-81.60Q2350.50-81.60 2342.40-81.60L2342.40-81.60Q2357.40-84 2369.10-89.70Q2380.80-95.40 2385.30-103.80L2385.30-103.80Q2388.00-108.30 2387.55-113.70Q2387.10-119.10 2384.55-123.45Q2382.00-127.80 2377.50-130.05Q2373.00-132.30 2367.30-130.50L2367.30-130.50Q2356.80-126.30 2343.75-115.95Q2330.70-105.60 2318.85-91.35Q2307.00-77.10 2298.75-60.60Q2290.50-44.10 2289.60-27.60L2289.60-27.60Q2289.30-21.60 2292.30-16.35Q2295.30-11.10 2299.80-7.20Q2304.30-3.30 2309.70-1.35Q2315.10 0.60 2319.60-0.30L2319.60-0.30Q2325.00-1.20 2330.85-3.45Q2336.70-5.70 2342.10-8.40Q2347.50-11.10 2352.00-13.95Q2356.50-16.80 2359.80-19.20L2359.80-19.20Q2362.20-20.70 2361.00-21.75Q2359.80-22.80 2357.40-21.30L2357.40-21.30Q2349.30-16.80 2338.05-12.60Q2326.80-8.40 2316.90-6.90L2316.90-6.90Q2313.00-6.60 2309.25-7.35Q2305.50-8.10 2302.65-10.35Q2299.80-12.60 2298.15-16.80Q2296.50-21 2296.80-27.60L2296.80-27.60Q2297.10-34.80 2299.50-41.55Q2301.90-48.30 2305.20-54.60Q2308.50-60.90 2312.25-66.45Q2316.00-72 2319.30-76.50L2319.30-76.50Q2328.30-76.50 2340.30-76.50L2340.30-76.50Q2352.30-76.50 2364.30-76.80Q2376.30-77.10 2386.35-77.40Q2396.40-77.70 2401.50-78.60L2401.50-78.60Q2409.90-79.80 2416.65-84.45Q2423.40-89.10 2426.40-92.40ZM2378.10-106.50L2378.10-106.50Q2374.50-101.10 2368.35-96.60Q2362.20-92.10 2354.70-88.65Q2347.20-85.20 2338.80-83.40Q2330.40-81.60 2322.60-81.60L2322.60-81.60Q2332.80-92.70 2344.20-103.05Q2355.60-113.40 2366.70-119.70L2366.70-119.70Q2371.20-122.10 2374.65-122.25Q2378.10-122.40 2379.90-120.45Q2381.70-118.50 2381.40-114.90Q2381.10-111.30 2378.10-106.50Z"/>
</svg>