<svg xmlns="http://www.w3.org/2000/svg" fill="#0e7490" viewBox="4.292307692307692 -361.98640776699034 1893.0076923076922 411.20515776699034">
  <path d="M399-226.80L399-226.80Q399.30-228.60 398.55-231.15Q397.80-233.70 396.30-235.50Q394.80-237.30 393-238.05Q391.20-238.80 389.70-237.30L389.70-237.30Q386.70-234 382.35-229.80Q378-225.60 373.20-220.80Q368.40-216 363.75-211.05Q359.10-206.10 355.50-201.90L355.50-201.90Q354.30-200.70 355.05-199.65Q355.80-198.60 357.30-198.90L357.30-198.90Q359.70-199.80 360.60-198.75Q361.50-197.70 360-195.90L360-195.90Q354-188.10 345.90-176.10Q337.80-164.10 329.25-150.60Q320.70-137.10 312.75-123.30Q304.80-109.50 299.40-97.80L299.40-97.80Q292.20-97.50 281.40-97.50L281.40-97.50Q270.60-97.50 259.20-97.65Q247.80-97.80 237.45-97.95Q227.10-98.10 220.50-97.80L220.50-97.80Q224.10-103.20 228-110.40Q231.90-117.60 235.20-125.70Q238.50-133.80 241.20-142.05Q243.90-150.30 244.80-157.20L244.80-157.20Q247.20-174 243.60-186.90Q240-199.80 230.70-207.90Q221.40-216 206.70-218.55Q192-221.10 172.50-217.20L172.50-217.20Q157.50-213.90 140.10-205.95Q122.70-198 105.45-186.30Q88.20-174.60 72.75-159.90Q57.30-145.20 46.50-128.70L46.50-128.70Q45-126.90 45.15-124.05Q45.30-121.20 46.20-118.80Q47.10-116.40 48.75-115.05Q50.40-113.70 52.20-114.90L52.20-114.90Q56.10-117.30 60-121.20Q63.90-125.10 66.30-128.40L66.30-128.40Q67.50-130.20 68.10-131.70Q68.70-133.20 68.70-137.10L68.70-137.10Q91.50-163.50 119.10-182.55Q146.70-201.60 175.50-208.80L175.50-208.80Q192.90-213 205.50-211.35Q218.10-209.70 225.60-202.95Q233.10-196.20 235.35-184.80Q237.60-173.40 234.60-157.80L234.60-157.80Q233.10-151.80 229.95-143.55Q226.80-135.30 222.75-126.90Q218.70-118.50 214.20-110.70Q209.70-102.90 205.50-97.80L205.50-97.80Q198.30-97.20 191.40-97.35Q184.50-97.50 179.40-96.60L179.40-96.60Q176.40-96.30 175.80-94.20Q175.20-92.10 176.10-89.70Q177-87.30 179.10-85.35Q181.20-83.40 183.90-83.40L183.90-83.40Q187.20-83.40 191.25-84.15Q195.30-84.90 197.70-85.20L197.70-85.20Q185.70-67.50 169.35-48.60Q153-29.70 134.55-12.60Q116.10 4.50 96.30 18Q76.50 31.50 57.90 38.10L57.90 38.10Q47.70 41.40 39.15 42.90Q30.60 44.40 24.45 43.05Q18.30 41.70 15.45 37.05Q12.60 32.40 13.50 23.40L13.50 23.40Q14.10 17.70 16.20 12Q18.30 6.30 21.15 1.05Q24-4.20 27.15-8.55Q30.30-12.90 33-16.20L33-16.20Q35.40-18.60 33.90-19.65Q32.40-20.70 30-18.30L30-18.30Q26.40-15 22.35-10.35Q18.30-5.70 14.55-0.30Q10.80 5.10 8.10 11.10Q5.40 17.10 4.50 22.80L4.50 22.80Q3.60 29.40 6.60 35.40Q9.60 41.40 16.35 45.15Q23.10 48.90 33.75 49.20Q44.40 49.50 59.10 45L59.10 45Q81 37.80 102 24.30Q123 10.80 142.50-6.75Q162-24.30 179.85-44.85Q197.70-65.40 213.60-87L213.60-87Q221.70-88.20 233.25-88.95Q244.80-89.70 256.65-90.15Q268.50-90.60 279.30-90.90Q290.10-91.20 296.70-91.20L296.70-91.20Q292.80-83.10 288.90-72.15Q285-61.20 282.15-49.95Q279.30-38.70 278.10-28.05Q276.90-17.40 278.40-9.30L278.40-9.30Q278.70-7.50 280.20-5.10Q281.70-2.70 283.50-0.90Q285.30 0.90 287.40 1.80Q289.50 2.70 291.30 2.10L291.30 2.10Q294.30 0 295.50-1.50L295.50-1.50Q296.70-3.60 296.10-4.80Q295.50-6 293.40-4.80L293.40-4.80Q291-3.30 287.70-4.65Q284.40-6 284.40-10.20L284.40-10.20Q284.10-20.70 286.80-32.70Q289.50-44.70 293.40-55.95Q297.30-67.20 301.50-76.50Q305.70-85.80 308.40-91.20L308.40-91.20Q312.60-91.20 315.75-91.50Q318.90-91.80 321.60-91.50L321.60-91.50Q323.70-90.90 325.05-91.80Q326.40-92.70 326.85-93.75Q327.30-94.80 326.70-96Q326.10-97.20 324-97.80L324-97.80Q321.60-98.40 318.30-98.10Q315-97.80 311.70-97.80L311.70-97.80Q318.60-112.50 328.50-129.30Q338.40-146.10 349.95-163.20Q361.50-180.30 374.10-196.65Q386.70-213 399-226.80Z"/>
  <path d="M456.70-92.40L456.70-92.40Q458.20-94.50 457.15-95.10Q456.10-95.70 454.60-93.60L454.60-93.60Q451-90.30 444.55-87Q438.10-83.70 431.80-83.10L431.80-83.10Q427-82.50 420.25-82.20Q413.50-81.90 405.70-81.75Q397.90-81.60 389.20-81.60L389.20-81.60Q380.80-81.60 372.70-81.60L372.70-81.60Q387.70-84 399.40-89.70Q411.10-95.40 415.60-103.80L415.60-103.80Q418.30-108.30 417.85-113.70Q417.40-119.10 414.85-123.45Q412.30-127.80 407.80-130.05Q403.30-132.30 397.60-130.50L397.60-130.50Q387.10-126.30 374.05-115.95Q361-105.60 349.15-91.35Q337.30-77.10 329.05-60.60Q320.80-44.10 319.90-27.60L319.90-27.60Q319.60-21.60 322.60-16.35Q325.60-11.10 330.10-7.20Q334.60-3.30 340-1.35Q345.40 0.60 349.90-0.30L349.90-0.30Q355.30-1.20 361.15-3.45Q367-5.70 372.40-8.40Q377.80-11.10 382.30-13.95Q386.80-16.80 390.10-19.20L390.10-19.20Q392.50-20.70 391.30-21.75Q390.10-22.80 387.70-21.30L387.70-21.30Q379.60-16.80 368.35-12.60Q357.10-8.40 347.20-6.90L347.20-6.90Q343.30-6.60 339.55-7.35Q335.80-8.10 332.95-10.35Q330.10-12.60 328.45-16.80Q326.80-21 327.10-27.60L327.10-27.60Q327.40-34.80 329.80-41.55Q332.20-48.30 335.50-54.60Q338.80-60.90 342.55-66.45Q346.30-72 349.60-76.50L349.60-76.50Q358.60-76.50 370.60-76.50L370.60-76.50Q382.60-76.50 394.60-76.80Q406.60-77.10 416.65-77.40Q426.70-77.70 431.80-78.60L431.80-78.60Q440.20-79.80 446.95-84.45Q453.70-89.10 456.70-92.40ZM408.40-106.50L408.40-106.50Q404.80-101.10 398.65-96.60Q392.50-92.10 385-88.65Q377.50-85.20 369.10-83.40Q360.70-81.60 352.90-81.60L352.90-81.60Q363.10-92.70 374.50-103.05Q385.90-113.40 397-119.70L397-119.70Q401.50-122.10 404.95-122.25Q408.40-122.40 410.20-120.45Q412-118.50 411.70-114.90Q411.40-111.30 408.40-106.50Z"/>
  <path d="M422-34.20L422-34.20Q422.30-20.10 428-13.05Q433.70-6 442.40-4.80Q451.10-3.60 461.90-8.10Q472.70-12.60 483.20-21.90L483.20-21.90Q486.50-24.90 490.25-28.80Q494-32.70 496.40-35.70L496.40-35.70Q498.80-39 497.75-39.45Q496.70-39.90 494.30-37.50L494.30-37.50Q491-33.90 487.85-30.75Q484.70-27.60 480.80-24.60L480.80-24.60Q473.60-19.20 465.35-15.75Q457.10-12.30 450.05-13.20Q443-14.10 438.35-20.40Q433.70-26.70 434.30-40.80L434.30-40.80Q434.60-53.10 438.05-68.55Q441.50-84 446.60-98.10L446.60-98.10Q492.20-106.80 536.15-119.10Q580.10-131.40 623-147.90L623-147.90Q747.80-195 776.30-249.30L776.30-249.30Q781.40-259.80 782.90-271.50L782.90-271.50Q785.90-307.50 752.30-335.70L752.30-335.70Q719.30-364.20 675.50-361.80L675.50-361.80Q548.30-353.70 437.30-102L437.30-102L437.30-101.10Q429.80-83.70 425.60-66.75Q421.40-49.80 422-34.20ZM770-257.40L770-257.40Q745.10-207 643.10-162.30L643.10-162.30Q600.20-143.40 551.60-128.70Q503-114 448.10-102.60L448.10-102.60Q449-104.10 449.60-105.60Q450.20-107.10 450.80-108.60L450.80-108.60L450.50-108.60Q467-147 486.20-181.65Q505.40-216.30 528.20-247.80L528.20-247.80Q602.90-353.10 675.50-356.40L675.50-356.40Q718.40-357.90 748.40-332.70L748.40-332.70Q778.40-308.40 775.10-276.60L775.10-276.60Q774.50-271.50 773.30-266.85Q772.10-262.20 770-257.40Z"/>
  <path d="M505.50-34.20L505.50-34.20Q505.80-20.10 511.50-13.05Q517.20-6 525.90-4.80Q534.60-3.60 545.40-8.10Q556.20-12.60 566.70-21.90L566.70-21.90Q570-24.90 573.75-28.80Q577.50-32.70 579.90-35.70L579.90-35.70Q582.30-39 581.25-39.45Q580.20-39.90 577.80-37.50L577.80-37.50Q574.50-33.90 571.35-30.75Q568.20-27.60 564.30-24.60L564.30-24.60Q557.10-19.20 548.85-15.75Q540.60-12.30 533.55-13.20Q526.50-14.10 521.85-20.40Q517.20-26.70 517.80-40.80L517.80-40.80Q518.10-53.10 521.55-68.55Q525-84 530.10-98.10L530.10-98.10Q575.70-106.80 619.65-119.10Q663.60-131.40 706.50-147.90L706.50-147.90Q831.30-195 859.80-249.30L859.80-249.30Q864.90-259.80 866.40-271.50L866.40-271.50Q869.40-307.50 835.80-335.70L835.80-335.70Q802.80-364.20 759-361.80L759-361.80Q631.80-353.70 520.80-102L520.80-102L520.80-101.10Q513.30-83.70 509.10-66.75Q504.90-49.80 505.50-34.20ZM853.50-257.40L853.50-257.40Q828.60-207 726.60-162.30L726.60-162.30Q683.70-143.40 635.10-128.70Q586.50-114 531.60-102.60L531.60-102.60Q532.50-104.10 533.10-105.60Q533.70-107.10 534.30-108.60L534.30-108.60L534-108.60Q550.50-147 569.70-181.65Q588.90-216.30 611.70-247.80L611.70-247.80Q686.40-353.10 759-356.40L759-356.40Q801.90-357.90 831.90-332.70L831.90-332.70Q861.90-308.40 858.60-276.60L858.60-276.60Q858-271.50 856.80-266.85Q855.60-262.20 853.50-257.40Z"/>
  <path d="M588.40 5.10L588.40 5.10Q614.80 1.20 649.90-29.10L649.90-29.10Q667.90-44.40 676.75-57.45Q685.60-70.50 686.50-81.90L686.50-81.90Q686.50-82.50 686.20-83.40Q685.90-84.30 685.60-85.20L685.60-85.20Q685-86.10 685.60-87L685.60-87Q688.30-90.60 697.60-90.60L697.60-90.60Q702.10-90.60 702.10-92.40L702.10-92.40Q702.10-93 697.60-93.60L697.60-93.60Q685-93.90 675.25-94.20Q665.50-94.50 658.60-94.80L658.60-94.80Q658-95.10 657.55-95.40Q657.10-95.70 656.50-96L656.50-96Q647.80-101.70 643-101.40L643-101.40Q636.40-101.10 629.80-94.80L629.80-94.80Q627.70-93.60 626.50-93.60L626.50-93.60Q626.20-93.60 615.10-93.30L615.10-93.30Q608.20-93 607.30-91.50Q606.40-90 606.40-89.10L606.40-89.10Q606.40-87.30 609.10-85.35Q611.80-83.40 614.50-81.90L614.50-81.90Q616.30-81.30 615.10-79.20L615.10-79.20Q575.50-30.60 574.90-5.70L574.90-5.70Q574.90-3.30 576.25-1.20Q577.60 0.90 579.55 2.40Q581.50 3.90 583.90 4.65Q586.30 5.40 588.40 5.10ZM584.20-10.80L584.20-10.80Q601.60-52.20 633.70-81.90L633.70-81.90Q638.20-84.90 638.80-84.60L638.80-84.60Q644.20-86.70 650.50-87.45Q656.80-88.20 664-87.30L664-87.30Q677.50-85.80 675.40-76.80L675.40-76.80Q670.90-54.90 640.90-28.20L640.90-28.20Q612.40-2.10 592 1.20L592 1.20Q582.40 3 582.40-4.20L582.40-4.20Q582.40-7.50 584.20-10.80Z"/>
  <path d=""/>
  <path d="M914.70-0.30L914.70-0.30Q920.10-7.20 924.45-13.50Q928.80-19.80 932.40-24L932.40-24Q966-63.60 991.50-93Q1017-122.40 1034.70-142.80L1034.70-142.80Q1036.80-144.90 1038.60-144.90L1038.60-144.90Q1040.40-144.90 1040.40-142.20L1040.40-142.20Q1040.40-139.50 1039.20-137.40L1039.20-137.40Q1010.10-81.90 1010.10-34.80L1010.10-34.80Q1010.10-31.50 1010.10-28.80L1010.10-28.80Q1010.10-26.40 1010.40-23.70L1010.40-23.70Q1011.30-11.70 1019.40-4.20Q1027.50 3.30 1038.90 3.30L1038.90 3.30Q1040.40 3.30 1042.05 3.15Q1043.70 3 1045.50 2.70L1045.50 2.70Q1065.90-1.80 1099.80-33.30L1099.80-33.30Q1116.90-49.50 1131.15-66.60Q1145.40-83.70 1157.10-102.90L1157.10-102.90Q1184.10-146.10 1184.10-175.80L1184.10-175.80Q1184.10-198.60 1174.80-209.10L1174.80-209.10Q1172.10-212.40 1170.30-212.40L1170.30-212.40Q1169.40-212.40 1169.40-211.20L1169.40-211.20Q1169.40-209.40 1171.50-207.30L1171.50-207.30Q1177.80-197.10 1177.50-175.80L1177.50-175.80Q1176.90-160.20 1170-141.90Q1163.10-123.60 1149.30-102L1149.30-102Q1126.20-65.40 1093.50-35.10L1093.50-35.10Q1060.80-4.50 1044.30-2.40L1044.30-2.40Q1043.10-2.10 1041.90-2.10L1041.90-2.10Q1040.70-2.10 1039.50-2.10L1039.50-2.10Q1029.60-2.10 1023.30-8.25Q1017-14.40 1017.30-24L1017.30-24Q1017.60-53.70 1027.20-83.10L1027.20-83.10Q1031.40-96 1038.45-111.75Q1045.50-127.50 1055.10-145.80L1055.10-145.80Q1055.70-147 1055.70-148.80L1055.70-148.80Q1055.70-153 1053-157.80Q1050.30-162.60 1047-163.80L1047-163.80Q1044.60-164.40 1042.20-159.30L1042.20-159.30Q1037.70-152.40 1037.70-151.80L1037.70-151.80Q1006.50-116.10 981.15-87.30Q955.80-58.50 936.30-36L936.30-36Q933.60-33.30 931.80-33L931.80-33Q930-32.40 930-34.80L930-34.80Q930-35.70 931.50-39.30L931.50-39.30Q944.70-60.90 955.95-82.50Q967.20-104.10 976.80-126.60L976.80-126.60Q1001.10-182.70 1000.20-209.40L1000.20-209.40Q999.60-223.20 987-232.20L987-232.20Q973.80-242.10 958.50-240.30L958.50-240.30Q916.50-234.30 864-197.40L864-197.40Q811.20-159.90 804.60-131.10L804.60-131.10Q804-129.60 804-126.60L804-126.60Q804-120.30 806.70-113.85Q809.40-107.40 813-105.60L813-105.60Q820.50-101.70 831-105.60L831-105.60Q834.60-106.20 834.60-107.40L834.60-107.40Q834.60-108 831.30-108L831.30-108Q818.40-108 813.60-111.90L813.60-111.90Q807.30-117.60 811.80-131.10L811.80-131.10Q822.90-162.90 879.60-198.60L879.60-198.60Q907.50-215.70 929.55-224.55Q951.60-233.40 968.70-233.40L968.70-233.40Q992.10-233.40 994.50-209.40L994.50-209.40Q998.70-172.20 903-6.60L903-6.60Q902.40-4.80 902.40-3.60L902.40-3.60Q902.40 1.80 910.20 1.80L910.20 1.80Q913.20 1.80 914.70-0.30Z"/>
  <path d="M1156.60 5.10L1156.60 5.10Q1183 1.20 1218.10-29.10L1218.10-29.10Q1236.10-44.40 1244.95-57.45Q1253.80-70.50 1254.70-81.90L1254.70-81.90Q1254.70-82.50 1254.40-83.40Q1254.10-84.30 1253.80-85.20L1253.80-85.20Q1253.20-86.10 1253.80-87L1253.80-87Q1256.50-90.60 1265.80-90.60L1265.80-90.60Q1270.30-90.60 1270.30-92.40L1270.30-92.40Q1270.30-93 1265.80-93.60L1265.80-93.60Q1253.20-93.90 1243.45-94.20Q1233.70-94.50 1226.80-94.80L1226.80-94.80Q1226.20-95.10 1225.75-95.40Q1225.30-95.70 1224.70-96L1224.70-96Q1216-101.70 1211.20-101.40L1211.20-101.40Q1204.60-101.10 1198-94.80L1198-94.80Q1195.90-93.60 1194.70-93.60L1194.70-93.60Q1194.40-93.60 1183.30-93.30L1183.30-93.30Q1176.40-93 1175.50-91.50Q1174.60-90 1174.60-89.10L1174.60-89.10Q1174.60-87.30 1177.30-85.35Q1180-83.40 1182.70-81.90L1182.70-81.90Q1184.50-81.30 1183.30-79.20L1183.30-79.20Q1143.70-30.60 1143.10-5.70L1143.10-5.70Q1143.10-3.30 1144.45-1.20Q1145.80 0.90 1147.75 2.40Q1149.70 3.90 1152.10 4.65Q1154.50 5.40 1156.60 5.10ZM1152.40-10.80L1152.40-10.80Q1169.80-52.20 1201.90-81.90L1201.90-81.90Q1206.40-84.90 1207-84.60L1207-84.60Q1212.40-86.70 1218.70-87.45Q1225-88.20 1232.20-87.30L1232.20-87.30Q1245.70-85.80 1243.60-76.80L1243.60-76.80Q1239.10-54.90 1209.10-28.20L1209.10-28.20Q1180.60-2.10 1160.20 1.20L1160.20 1.20Q1150.60 3 1150.60-4.20L1150.60-4.20Q1150.60-7.50 1152.40-10.80Z"/>
  <path d="M1242.20 3.90L1242.20 3.90Q1246.10 1.50 1249.10 0.15Q1252.10-1.20 1254.50-2.10L1254.50-2.10Q1256.90-3.30 1256.90-4.20L1256.90-4.20Q1291.70-61.20 1336.10-85.80L1336.10-85.80Q1346.30-91.20 1352.30-88.50L1352.30-88.50Q1353.20-87.90 1354.70-88.65Q1356.20-89.40 1357.55-90.75Q1358.90-92.10 1359.95-93.75Q1361-95.40 1361-96.30L1361-96.30Q1361-96.60 1360.70-96.90L1360.70-96.90Q1356.20-99 1346.90-98.70L1346.90-98.70Q1336.10-94.20 1316.90-78.60L1316.90-78.60Q1298.30-63.60 1286.60-49.50L1286.60-49.50Q1285.70-48.30 1283-47.10L1283-47.10Q1279.70-45.90 1279.70-47.40L1279.70-47.40Q1279.70-48.60 1280.60-50.40L1280.60-50.40Q1283.90-57 1290.65-66.75Q1297.40-76.50 1307-89.70L1307-89.70Q1308.50-91.20 1307.30-93L1307.30-93Q1306.70-94.50 1304.90-94.50L1304.90-94.50Q1304-94.50 1303.70-93.90L1303.70-93.90Q1284.80-82.50 1281.20-81.30L1281.20-81.30Q1280.90-80.40 1281.20-79.20L1281.20-79.20Q1282.10-76.50 1282.10-75.90L1282.10-75.90Q1282.10-72.90 1280.30-68.40L1280.30-68.40Q1269.80-44.10 1240.70 0.90L1240.70 0.90Q1239.80 2.40 1240.40 3.90L1240.40 3.90Q1240.70 5.70 1242.20 3.90Z"/>
  <path d="M1362.60-34.20L1362.60-34.20Q1362.90-20.10 1368.60-13.05Q1374.30-6 1383-4.80Q1391.70-3.60 1402.50-8.10Q1413.30-12.60 1423.80-21.90L1423.80-21.90Q1427.10-24.90 1430.85-28.80Q1434.60-32.70 1437-35.70L1437-35.70Q1439.40-39 1438.35-39.45Q1437.30-39.90 1434.90-37.50L1434.90-37.50Q1431.60-33.90 1428.45-30.75Q1425.30-27.60 1421.40-24.60L1421.40-24.60Q1414.20-19.20 1405.95-15.75Q1397.70-12.30 1390.65-13.20Q1383.60-14.10 1378.95-20.40Q1374.30-26.70 1374.90-40.80L1374.90-40.80Q1375.20-53.10 1378.65-68.55Q1382.10-84 1387.20-98.10L1387.20-98.10Q1432.80-106.80 1476.75-119.10Q1520.70-131.40 1563.60-147.90L1563.60-147.90Q1688.40-195 1716.90-249.30L1716.90-249.30Q1722-259.80 1723.50-271.50L1723.50-271.50Q1726.50-307.50 1692.90-335.70L1692.90-335.70Q1659.90-364.20 1616.10-361.80L1616.10-361.80Q1488.90-353.70 1377.90-102L1377.90-102L1377.90-101.10Q1370.40-83.70 1366.20-66.75Q1362-49.80 1362.60-34.20ZM1710.60-257.40L1710.60-257.40Q1685.70-207 1583.70-162.30L1583.70-162.30Q1540.80-143.40 1492.20-128.70Q1443.60-114 1388.70-102.60L1388.70-102.60Q1389.60-104.10 1390.20-105.60Q1390.80-107.10 1391.40-108.60L1391.40-108.60L1391.10-108.60Q1407.60-147 1426.80-181.65Q1446-216.30 1468.80-247.80L1468.80-247.80Q1543.50-353.10 1616.10-356.40L1616.10-356.40Q1659-357.90 1689-332.70L1689-332.70Q1719-308.40 1715.70-276.60L1715.70-276.60Q1715.10-271.50 1713.90-266.85Q1712.70-262.20 1710.60-257.40Z"/>
  <path d="M1543.90-102L1543.90-102Q1538.80-103.50 1534.75-104.25Q1530.70-105 1527.40-105L1527.40-105Q1524.10-105 1520.95-104.25Q1517.80-103.50 1515.10-102.60L1515.10-102.60Q1492.60-93.60 1460.80-63.60L1460.80-63.60Q1425.40-30 1425.40-9.90L1425.40-9.90Q1425.40 0.30 1436.50 0.30L1436.50 0.30Q1437.70 0.30 1439.50-0.30L1439.50-0.30Q1458.70-8.10 1488.70-35.40L1488.70-35.40Q1501.90-46.80 1512.10-57.75Q1522.30-68.70 1530.10-78.30L1530.10-78.30Q1531-79.50 1531.90-79.50L1531.90-79.50Q1535.20-79.50 1533.40-74.40L1533.40-74.40Q1516-28.50 1516-11.10L1516-11.10Q1516-6.90 1517.05-3.30Q1518.10 0.30 1519.60 2.70L1519.60 2.70Q1522.90 6.30 1526.20 4.50L1526.20 4.50Q1527.40 4.20 1528.60 2.40L1528.60 2.40Q1529.50 0.60 1528 0L1528 0Q1526.50-0.30 1525.30-0.45Q1524.10-0.60 1522.90-0.90L1522.90-0.90Q1521.10-3 1521.10-4.20L1521.10-4.20Q1520.80-35.70 1549-90.60L1549-90.60Q1555.60-103.50 1562.20-115.35Q1568.80-127.20 1575.40-138.60L1575.40-138.60Q1580.50-138.30 1585.60-138.30L1585.60-138.30Q1590.70-138.30 1596.40-138.30L1596.40-138.30Q1711.90-138.30 1832.50-194.70L1832.50-194.70Q1864.90-209.70 1882-231.90L1882-231.90Q1897.30-251.70 1897.30-273.90L1897.30-273.90Q1897.30-303 1872.70-324L1872.70-324Q1846.60-345.60 1808.50-345.60L1808.50-345.60Q1785.40-345.60 1762-337.20L1762-337.20Q1691.80-312.90 1623.10-225L1623.10-225Q1616.20-216.30 1608.70-205.65Q1601.20-195 1592.50-182.10L1592.50-182.10L1591.90-182.10Q1562.20-175.80 1547.80-159.90L1547.80-159.90Q1545.70-157.80 1545.70-154.80L1545.70-154.80Q1545.70-150 1549-145.65Q1552.30-141.30 1556.50-140.70L1556.50-140.70Q1558.60-140.10 1560.85-139.80Q1563.10-139.50 1565.50-139.20L1565.50-139.20Q1560.40-130.50 1555-121.20Q1549.60-111.90 1543.90-102ZM1763.80-333.60L1763.80-333.60Q1784.50-342.30 1806.70-342.30L1806.70-342.30Q1840.30-342.30 1865.50-324.30L1865.50-324.30Q1890.70-307.20 1890.70-281.10L1890.70-281.10Q1890.70-240.90 1828.30-204.90L1828.30-204.90Q1720.90-142.50 1595.80-142.50L1595.80-142.50Q1590.70-142.50 1586.50-142.50L1586.50-142.50Q1582.30-142.50 1578.10-142.80L1578.10-142.80Q1666.30-292.20 1763.80-333.60ZM1444.60-26.10L1444.60-26.10Q1452.40-45.30 1475.50-68.40L1475.50-68.40Q1487.20-79.80 1496.65-86.70Q1506.10-93.60 1513.90-95.40L1513.90-95.40Q1517.80-96.30 1521.70-96.30L1521.70-96.30Q1532.50-96.30 1532.50-89.40L1532.50-89.40Q1532.50-86.10 1528.90-81.60L1528.90-81.60Q1510.60-60.30 1491.70-43.80Q1472.80-27.30 1453-14.40L1453-14.40Q1450.60-12.90 1448.20-12.90L1448.20-12.90Q1443.10-12.90 1443.10-19.50L1443.10-19.50Q1443.10-23.10 1444.60-26.10ZM1557.10-145.20L1557.10-145.20Q1550.50-146.10 1550.50-151.20L1550.50-151.20Q1550.50-154.50 1552.60-156.60L1552.60-156.60Q1558.90-164.10 1568.20-169.80Q1577.50-175.50 1590.70-179.10L1590.70-179.10Q1585.60-171 1580.05-162.15Q1574.50-153.30 1568.50-143.70L1568.50-143.70Q1565.20-144 1562.35-144.30Q1559.50-144.60 1557.10-145.20Z"/>
</svg>