<svg xmlns="http://www.w3.org/2000/svg" fill="#0e7490" viewBox="-0.3 -234 2900.100000000001 305.7">
  <path d="M198.30-210L140.10-210L99-131.10L57.90-210L-0.30-210L73.20-85.20L73.20 0L124.80 0L124.80-85.50L198.30-210Z"/>
  <path d="M187.60-69L187.60-69Q187.60-47.40 197.80-31.20Q208-15 226-6Q244 3 266.50 3L266.50 3Q289 3 306.85-6Q324.70-15 335.05-31.20Q345.40-47.40 345.40-69L345.40-69Q345.40-90.90 335.05-107.10Q324.70-123.30 306.85-132.30Q289-141.30 266.50-141.30L266.50-141.30Q244-141.30 226-132.30Q208-123.30 197.80-107.10Q187.60-90.90 187.60-69ZM234.10-69L234.10-69Q234.10-79.80 238.60-87.60Q243.10-95.40 250.30-99.60Q257.50-103.80 266.50-103.80L266.50-103.80Q275.20-103.80 282.55-99.60Q289.90-95.40 294.25-87.60Q298.60-79.80 298.60-69L298.60-69Q298.60-58.20 294.25-50.55Q289.90-42.90 282.55-38.70Q275.20-34.50 266.50-34.50L266.50-34.50Q257.50-34.50 250.30-38.70Q243.10-42.90 238.60-50.55Q234.10-58.20 234.10-69Z"/>
  <path d="M429.80-54L429.80-54L429.80-138L382.40-138L382.40-49.20Q382.40-24.60 394.25-10.65Q406.10 3.30 431.90 3.30L431.90 3.30Q447.20 3.30 457.40-3.15Q467.60-9.60 473.90-20.70L473.90-20.70L473.90 0L519.20 0L519.20-138L473.90-138L473.90-54Q473.90-45.90 470.90-40.20Q467.90-34.50 462.65-31.50Q457.40-28.50 449.90-28.50L449.90-28.50Q438.80-28.50 434.30-35.25Q429.80-42 429.80-54Z"/>
  <path d="M609.60 0L609.60-138L564.90-138L564.90 0L609.60 0ZM649.50-91.20L649.50-91.20L669-129.90Q665.40-135.30 658.50-138.30Q651.60-141.30 644.10-141.30L644.10-141.30Q632.70-141.30 622.20-133.80Q611.70-126.30 605.25-113.40Q598.80-100.50 598.80-84L598.80-84L609.60-68.10Q609.60-78 612.30-84.90Q615-91.80 620.10-95.40Q625.20-99 631.80-99L631.80-99Q637.80-99 641.85-96.90Q645.90-94.80 649.50-91.20Z"/>
  <path d=""/>
  <path d="M874.40-138L782-138L782-100.50L874.40-100.50L874.40-138ZM849.80-186L806.30-186L806.30 0L849.80 0L849.80-186Z"/>
  <path d="M973.80 3L973.80 3Q1000.20 3 1018.65-7.20Q1037.10-17.40 1047.90-37.80L1047.90-37.80L1007.40-47.70Q1002.30-38.70 993.75-34.20Q985.20-29.70 973.20-29.70L973.20-29.70Q962.70-29.70 955.50-34.35Q948.30-39 944.70-48Q941.10-57 941.10-69.60L941.10-69.60Q941.40-83.40 944.85-92.55Q948.30-101.70 955.20-106.20Q962.10-110.70 972.30-110.70L972.30-110.70Q980.40-110.70 986.40-107.10Q992.40-103.50 995.70-96.90Q999-90.30 999-81.30L999-81.30Q999-79.20 997.95-76.05Q996.90-72.90 995.40-70.80L995.40-70.80L1006.20-84.60L921-84.60L921-59.40L1047-59.40Q1047.60-61.50 1047.60-64.65Q1047.60-67.80 1047.60-71.10L1047.60-71.10Q1047.60-93.30 1038.90-108.90Q1030.20-124.50 1013.70-132.75Q997.20-141 973.20-141L973.20-141Q949.20-141 931.65-132.30Q914.10-123.60 904.80-107.40Q895.50-91.20 895.50-69L895.50-69Q895.50-47.10 905.10-30.90Q914.70-14.70 932.25-5.85Q949.80 3 973.80 3Z"/>
  <path d="M1219.90-138L1169.50-138L1143.70-101.70L1118.50-138L1066.30-138L1120-70.80L1063.30 0L1115.50 0L1143.70-40.20L1172.50 0L1222.90 0L1167.10-70.80L1219.90-138Z"/>
  <path d="M1326.80-138L1234.40-138L1234.40-100.50L1326.80-100.50L1326.80-138ZM1302.20-186L1258.70-186L1258.70 0L1302.20 0L1302.20-186Z"/>
  <path d=""/>
  <path d="M1494.70 9.90L1450.90 9.90Q1452.40 28.20 1460.80 42.15Q1469.20 56.10 1485.85 63.90Q1502.50 71.70 1528 71.70L1528 71.70Q1549.30 71.70 1566.40 64.05Q1583.50 56.40 1593.85 39.90Q1604.20 23.40 1604.20-3L1604.20-3L1604.20-138L1560.70-138L1560.70-3Q1560.70 9.60 1556.05 18.15Q1551.40 26.70 1543.60 31.05Q1535.80 35.40 1526.20 35.40L1526.20 35.40Q1517.50 35.40 1510.60 32.55Q1503.70 29.70 1499.65 24Q1495.60 18.30 1494.70 9.90L1494.70 9.90ZM1447.90-70.80L1447.90-70.80Q1447.90-47.70 1457.35-32.10Q1466.80-16.50 1481.80-8.55Q1496.80-0.60 1513.60-0.60L1513.60-0.60Q1531-0.60 1544.35-8.85Q1557.70-17.10 1565.50-32.85Q1573.30-48.60 1573.30-70.80L1573.30-70.80Q1573.30-93.30 1565.50-108.90Q1557.70-124.50 1544.35-132.75Q1531-141 1513.60-141L1513.60-141Q1496.80-141 1481.80-133.20Q1466.80-125.40 1457.35-109.80Q1447.90-94.20 1447.90-70.80ZM1495.60-70.80L1495.60-70.80Q1495.60-81.60 1500.10-89.10Q1504.60-96.60 1512.10-100.50Q1519.60-104.40 1528.60-104.40L1528.60-104.40Q1534.30-104.40 1540-102.30Q1545.70-100.20 1550.35-96Q1555-91.80 1557.85-85.50Q1560.70-79.20 1560.70-70.80L1560.70-70.80Q1560.70-59.70 1555.90-52.20Q1551.10-44.70 1543.75-40.95Q1536.40-37.20 1528.60-37.20L1528.60-37.20Q1519.60-37.20 1512.10-41.10Q1504.60-45 1500.10-52.65Q1495.60-60.30 1495.60-70.80Z"/>
  <path d="M1640.90-69L1640.90-69Q1640.90-47.40 1651.10-31.20Q1661.30-15 1679.30-6Q1697.30 3 1719.80 3L1719.80 3Q1742.30 3 1760.15-6Q1778-15 1788.35-31.20Q1798.70-47.40 1798.70-69L1798.70-69Q1798.70-90.90 1788.35-107.10Q1778-123.30 1760.15-132.30Q1742.30-141.30 1719.80-141.30L1719.80-141.30Q1697.30-141.30 1679.30-132.30Q1661.30-123.30 1651.10-107.10Q1640.90-90.90 1640.90-69ZM1687.40-69L1687.40-69Q1687.40-79.80 1691.90-87.60Q1696.40-95.40 1703.60-99.60Q1710.80-103.80 1719.80-103.80L1719.80-103.80Q1728.50-103.80 1735.85-99.60Q1743.20-95.40 1747.55-87.60Q1751.90-79.80 1751.90-69L1751.90-69Q1751.90-58.20 1747.55-50.55Q1743.20-42.90 1735.85-38.70Q1728.50-34.50 1719.80-34.50L1719.80-34.50Q1710.80-34.50 1703.60-38.70Q1696.40-42.90 1691.90-50.55Q1687.40-58.20 1687.40-69Z"/>
  <path d="M1905.90 3L1905.90 3Q1932.30 3 1950.75-7.20Q1969.20-17.40 1980-37.80L1980-37.80L1939.50-47.70Q1934.40-38.70 1925.85-34.20Q1917.30-29.70 1905.30-29.70L1905.30-29.70Q1894.80-29.70 1887.60-34.35Q1880.40-39 1876.80-48Q1873.20-57 1873.20-69.60L1873.20-69.60Q1873.50-83.40 1876.95-92.55Q1880.40-101.70 1887.30-106.20Q1894.20-110.70 1904.40-110.70L1904.40-110.70Q1912.50-110.70 1918.50-107.10Q1924.50-103.50 1927.80-96.90Q1931.10-90.30 1931.10-81.30L1931.10-81.30Q1931.10-79.20 1930.05-76.05Q1929-72.90 1927.50-70.80L1927.50-70.80L1938.30-84.60L1853.10-84.60L1853.10-59.40L1979.10-59.40Q1979.70-61.50 1979.70-64.65Q1979.70-67.80 1979.70-71.10L1979.70-71.10Q1979.70-93.30 1971-108.90Q1962.30-124.50 1945.80-132.75Q1929.30-141 1905.30-141L1905.30-141Q1881.30-141 1863.75-132.30Q1846.20-123.60 1836.90-107.40Q1827.60-91.20 1827.60-69L1827.60-69Q1827.60-47.10 1837.20-30.90Q1846.80-14.70 1864.35-5.85Q1881.90 3 1905.90 3Z"/>
  <path d="M2025.10-50.10L2025.10-50.10L2006.20-20.10Q2015.50-12.90 2026.30-7.05Q2037.10-1.20 2049.85 2.25Q2062.60 5.70 2077.30 5.70L2077.30 5.70Q2102.20 5.70 2115.85-5.55Q2129.50-16.80 2129.50-39L2129.50-39Q2129.50-51.90 2123.95-59.70Q2118.40-67.50 2109.25-72.60Q2100.10-77.70 2089.30-81.60L2089.30-81.60Q2079.10-85.50 2072.05-88.05Q2065-90.60 2061.25-93.60Q2057.50-96.60 2057.50-101.10L2057.50-101.10Q2057.50-105 2060.65-107.40Q2063.80-109.80 2070.10-109.80L2070.10-109.80Q2079.40-109.80 2090.50-104.55Q2101.60-99.30 2110.30-91.20L2110.30-91.20L2126.50-120.60Q2118.40-126.60 2109.25-131.10Q2100.10-135.60 2089.75-138.30Q2079.40-141 2067.40-141L2067.40-141Q2052.40-141 2040.85-136.50Q2029.30-132 2022.55-123.30Q2015.80-114.60 2015.80-102L2015.80-102Q2015.80-88.80 2021.50-80.40Q2027.20-72 2036.05-67.05Q2044.90-62.10 2054.80-58.50L2054.80-58.50Q2065.90-55.20 2072.35-52.20Q2078.80-49.20 2081.50-46.05Q2084.20-42.90 2084.20-38.40L2084.20-38.40Q2084.20-33.60 2080.90-30.60Q2077.60-27.60 2070.70-27.60L2070.70-27.60Q2065.90-27.60 2059.30-29.55Q2052.70-31.50 2044.15-36.45Q2035.60-41.40 2025.10-50.10Z"/>
  <path d=""/>
  <path d="M2310.00 0L2310.00-234L2264.40-234L2264.40 0L2310.00 0ZM2354.10-84L2354.10-84L2354.10 0L2399.40 0L2399.40-90.60Q2399.40-107.70 2394.60-119.40Q2389.80-131.10 2379.45-137.10Q2369.10-143.10 2352.00-143.10L2352.00-143.10Q2334.90-143.10 2323.95-135.15Q2313.00-127.20 2307.60-113.85Q2302.20-100.50 2302.20-84L2302.20-84L2310.00-84Q2310.00-92.10 2313.00-97.65Q2316.00-103.20 2321.40-106.35Q2326.80-109.50 2334.00-109.50L2334.00-109.50Q2345.10-109.50 2349.60-102.90Q2354.10-96.30 2354.10-84Z"/>
  <path d="M2515.00 3L2515.00 3Q2541.40 3 2559.85-7.20Q2578.30-17.40 2589.10-37.80L2589.10-37.80L2548.60-47.70Q2543.50-38.70 2534.95-34.20Q2526.40-29.70 2514.40-29.70L2514.40-29.70Q2503.90-29.70 2496.70-34.35Q2489.50-39 2485.90-48Q2482.30-57 2482.30-69.60L2482.30-69.60Q2482.60-83.40 2486.05-92.55Q2489.50-101.70 2496.40-106.20Q2503.30-110.70 2513.50-110.70L2513.50-110.70Q2521.60-110.70 2527.60-107.10Q2533.60-103.50 2536.90-96.90Q2540.20-90.30 2540.20-81.30L2540.20-81.30Q2540.20-79.20 2539.15-76.05Q2538.10-72.90 2536.60-70.80L2536.60-70.80L2547.40-84.60L2462.20-84.60L2462.20-59.40L2588.20-59.40Q2588.80-61.50 2588.80-64.65Q2588.80-67.80 2588.80-71.10L2588.80-71.10Q2588.80-93.30 2580.10-108.90Q2571.40-124.50 2554.90-132.75Q2538.40-141 2514.40-141L2514.40-141Q2490.40-141 2472.85-132.30Q2455.30-123.60 2446.00-107.40Q2436.70-91.20 2436.70-69L2436.70-69Q2436.70-47.10 2446.30-30.90Q2455.90-14.70 2473.45-5.85Q2491.00 3 2515.00 3Z"/>
  <path d="M2671.40 0L2671.40-138L2626.70-138L2626.70 0L2671.40 0ZM2711.30-91.20L2711.30-91.20L2730.80-129.90Q2727.20-135.30 2720.30-138.30Q2713.40-141.30 2705.90-141.30L2705.90-141.30Q2694.50-141.30 2684.00-133.80Q2673.50-126.30 2667.05-113.40Q2660.60-100.50 2660.60-84L2660.60-84L2671.40-68.10Q2671.40-78 2674.10-84.90Q2676.80-91.80 2681.90-95.40Q2687.00-99 2693.60-99L2693.60-99Q2699.60-99 2703.65-96.90Q2707.70-94.80 2711.30-91.20Z"/>
  <path d="M2825.70 3L2825.70 3Q2852.10 3 2870.55-7.20Q2889.00-17.40 2899.80-37.80L2899.80-37.80L2859.30-47.70Q2854.20-38.70 2845.65-34.20Q2837.10-29.70 2825.10-29.70L2825.10-29.70Q2814.60-29.70 2807.40-34.35Q2800.20-39 2796.60-48Q2793.00-57 2793.00-69.60L2793.00-69.60Q2793.30-83.40 2796.75-92.55Q2800.20-101.70 2807.10-106.20Q2814.00-110.70 2824.20-110.70L2824.20-110.70Q2832.30-110.70 2838.30-107.10Q2844.30-103.50 2847.60-96.90Q2850.90-90.30 2850.90-81.30L2850.90-81.30Q2850.90-79.20 2849.85-76.05Q2848.80-72.90 2847.30-70.80L2847.30-70.80L2858.10-84.60L2772.90-84.60L2772.90-59.40L2898.90-59.40Q2899.50-61.50 2899.50-64.65Q2899.50-67.80 2899.50-71.10L2899.50-71.10Q2899.50-93.30 2890.80-108.90Q2882.10-124.50 2865.60-132.75Q2849.10-141 2825.10-141L2825.10-141Q2801.10-141 2783.55-132.30Q2766.00-123.60 2756.70-107.40Q2747.40-91.20 2747.40-69L2747.40-69Q2747.40-47.10 2757.00-30.90Q2766.60-14.70 2784.15-5.85Q2801.70 3 2825.70 3Z"/>
</svg>