<svg xmlns="http://www.w3.org/2000/svg" fill="#0e7490" viewBox="45.3 -252.29999999999998 2106.6 281.09999999999997">
  <path d="M65.40-178.50L65.40-218.10Q81.90-216.30 102.60-215.40Q123.30-214.50 147-214.50L147-214.50Q161.70-214.50 177.45-215.10Q193.20-215.70 207.90-216.60Q222.60-217.50 234-218.70L234-218.70L234-178.80Q223.50-177.90 208.65-177Q193.80-176.10 177.75-175.65Q161.70-175.20 147.30-175.20L147.30-175.20Q123.90-175.20 103.80-176.10Q83.70-177 65.40-178.50L65.40-178.50ZM51.30-94.50L90.60-90.90Q88.50-83.10 87-75.60Q85.50-68.10 85.50-60.60L85.50-60.60Q85.50-46.20 100.05-36.90Q114.60-27.60 147-27.60L147-27.60Q167.40-27.60 186.30-29.10Q205.20-30.60 222.15-33.30Q239.10-36 252.30-39.60L252.30-39.60L252.60 2.70Q239.40 5.70 223.20 7.95Q207 10.20 188.25 11.55Q169.50 12.90 148.50 12.90L148.50 12.90Q114.30 12.90 91.20 5.40Q68.10-2.10 56.70-16.35Q45.30-30.60 45.30-51.30L45.30-51.30Q45.30-64.50 47.40-75.30Q49.50-86.10 51.30-94.50L51.30-94.50Z"/>
  <path d="M440.50-240L483.10-222.90Q481-219.90 478.45-216.15Q475.90-212.40 473.50-208.80L473.50-208.80Q468.10-200.70 461.65-190.05Q455.20-179.40 448.30-167.55Q441.40-155.70 434.95-144Q428.50-132.30 422.80-122.40L422.80-122.40Q431.20-127.20 439.90-129.30Q448.60-131.40 457.30-131.40L457.30-131.40Q474.10-131.40 483.85-121.35Q493.60-111.30 494.50-92.40L494.50-92.40Q494.80-85.80 494.80-76.50Q494.80-67.20 494.95-57.90Q495.10-48.60 495.70-42.30L495.70-42.30Q496.60-33.60 502.15-29.85Q507.70-26.10 515.20-26.10L515.20-26.10Q524.80-26.10 532.75-31.80Q540.70-37.50 547-47.55Q553.30-57.60 557.95-70.35Q562.60-83.10 565.90-96.90L565.90-96.90L598.30-70.50Q590.50-45 578.50-25.65Q566.50-6.30 549.25 4.35Q532 15 508.90 15L508.90 15Q492.40 15 481.30 9.15Q470.20 3.30 464.80-6.15Q459.40-15.60 458.80-26.70L458.80-26.70Q458.20-34.80 458.05-44.70Q457.90-54.60 457.75-64.05Q457.60-73.50 457-79.50L457-79.50Q456.40-87.30 451.90-91.80Q447.40-96.30 439.30-96.30L439.30-96.30Q429.40-96.30 420.40-90Q411.40-83.70 404.05-73.50Q396.70-63.30 391.30-51L391.30-51Q388.30-44.40 385-35.40Q381.70-26.40 378.70-16.80Q375.70-7.20 373 1.35Q370.30 9.90 368.50 15.90L368.50 15.90L326.20 1.50Q331.90-13.50 340.15-32.85Q348.40-52.20 358.30-73.50Q368.20-94.80 378.40-115.80Q388.60-136.80 397.90-155.55Q407.20-174.30 414.55-188.25Q421.90-202.20 425.80-209.40L425.80-209.40Q428.80-215.40 432.70-222.90Q436.60-230.40 440.50-240L440.50-240Z"/>
  <path d="M754.40-171.30L754.40-209.70Q768.20-207.90 785.45-207.15Q802.70-206.40 820.55-206.55Q838.40-206.70 854.90-207.75Q871.40-208.80 883.40-210L883.40-210L883.40-171.30Q869.60-170.10 853.10-169.35Q836.60-168.60 819.20-168.60Q801.80-168.60 785.15-169.35Q768.50-170.10 754.40-171.30L754.40-171.30ZM743.90-84.90L778.40-81.60Q776.60-74.10 775.70-68.25Q774.80-62.40 774.80-56.40L774.80-56.40Q774.80-51.60 777.20-47.55Q779.60-43.50 784.55-40.65Q789.50-37.80 797.45-36.45Q805.40-35.10 816.80-35.10L816.80-35.10Q836.90-35.10 854.60-37.05Q872.30-39 892.10-42.90L892.10-42.90L892.70-2.40Q878.30 0.30 859.55 1.80Q840.80 3.30 815.30 3.30L815.30 3.30Q776.60 3.30 757.70-9.75Q738.80-22.80 738.80-45.90L738.80-45.90Q738.80-54.60 740.15-64.05Q741.50-73.50 743.90-84.90L743.90-84.90ZM666.20-233.40L708.20-229.80Q707-226.80 705.50-221.40Q704-216 702.65-210.90Q701.30-205.80 700.70-203.10L700.70-203.10Q699.80-196.80 697.85-186.75Q695.90-176.70 693.95-164.25Q692-151.80 690.20-138.90Q688.40-126 687.35-114Q686.30-102 686.30-93L686.30-93Q686.30-88.80 686.45-83.40Q686.60-78 687.50-73.50L687.50-73.50Q689.60-78.60 692-83.70Q694.40-88.80 696.80-94.05Q699.20-99.30 701-104.10L701-104.10L719.60-89.40Q715.40-77.10 711.05-63Q706.70-48.90 703.25-36.45Q699.80-24 698-15.90L698-15.90Q697.40-12.60 696.95-8.40Q696.50-4.20 696.50-1.80L696.50-1.80Q696.50 0.60 696.65 4.05Q696.80 7.50 697.10 10.50L697.10 10.50L662.30 12.90Q657.80-2.70 654.20-28.65Q650.60-54.60 650.60-85.20L650.60-85.20Q650.60-102 652.10-119.40Q653.60-136.80 655.70-152.85Q657.80-168.90 659.75-182.10Q661.70-195.30 663.20-204L663.20-204Q663.80-210.30 664.85-218.25Q665.90-226.20 666.20-233.40L666.20-233.40Z"/>
  <path d="M1023.30-240.90L1065.90-239.10Q1063.50-231.30 1061.85-223.65Q1060.20-216 1058.70-208.50L1058.70-208.50Q1057.20-201.30 1055.25-192Q1053.30-182.70 1051.05-172.35Q1048.80-162 1046.25-151.50Q1043.70-141 1041-130.95Q1038.30-120.90 1035.90-112.50L1035.90-112.50Q1054.20-122.70 1072.20-127.05Q1090.20-131.40 1110.30-131.40L1110.30-131.40Q1134.60-131.40 1152.75-123.30Q1170.90-115.20 1180.95-100.80Q1191-86.40 1191-67.20L1191-67.20Q1191-42 1179.45-24.60Q1167.90-7.20 1146.45 2.70Q1125 12.60 1095.15 15.30Q1065.30 18 1029 14.10L1029 14.10L1018.50-24.60Q1043.10-20.40 1066.65-20.40Q1090.20-20.40 1109.10-24.90Q1128-29.40 1139.25-39.45Q1150.50-49.50 1150.50-66L1150.50-66Q1150.50-79.50 1139.10-89.25Q1127.70-99 1105.80-99L1105.80-99Q1079.70-99 1057.95-90Q1036.20-81 1022.70-63.90L1022.70-63.90Q1020.60-60.60 1018.65-57.60Q1016.70-54.60 1014.30-50.70L1014.30-50.70L978.90-63.30Q987.30-79.50 994.50-100.20Q1001.70-120.90 1007.40-141.90Q1013.10-162.90 1016.70-181.05Q1020.30-199.20 1021.80-210.60L1021.80-210.60Q1023.30-220.20 1023.60-226.95Q1023.90-233.70 1023.30-240.90L1023.30-240.90ZM961.20-166.80L961.20-204Q975.60-201.60 992.40-199.95Q1009.20-198.30 1023.30-198.30L1023.30-198.30Q1037.70-198.30 1054.95-199.20Q1072.20-200.10 1091.40-201.90Q1110.60-203.70 1129.95-206.55Q1149.30-209.40 1167.90-213.30L1167.90-213.30L1168.50-177.60Q1154.10-175.20 1135.95-172.80Q1117.80-170.40 1098-168.45Q1078.20-166.50 1059-165.30Q1039.80-164.10 1023.60-164.10L1023.60-164.10Q1006.20-164.10 990.45-164.85Q974.70-165.60 961.20-166.80L961.20-166.80Z"/>
  <path d="M1357.30-148.50L1357.30-184.20Q1370.20-183 1383.25-182.25Q1396.30-181.50 1409.80-181.50L1409.80-181.50Q1437.40-181.50 1464.70-183.90Q1492-186.30 1515.10-191.40L1515.10-191.40L1515.10-153.90Q1491.70-150.60 1464.40-148.65Q1437.10-146.70 1409.80-146.70L1409.80-146.70Q1396.60-146.70 1383.55-147.15Q1370.50-147.60 1357.30-148.50L1357.30-148.50ZM1428.40-234.90L1471.30-234.90Q1470.70-230.70 1470.25-225.60Q1469.80-220.50 1469.50-215.40L1469.50-215.40Q1469.20-210.60 1468.90-202.50Q1468.60-194.40 1468.60-184.35Q1468.60-174.30 1468.60-163.20L1468.60-163.20Q1468.60-142.80 1469.20-124.95Q1469.80-107.10 1470.70-91.95Q1471.60-76.80 1472.35-64.20Q1473.10-51.60 1473.10-40.80L1473.10-40.80Q1473.10-29.10 1469.95-19.20Q1466.80-9.30 1459.90-1.80Q1453 5.70 1441.75 9.75Q1430.50 13.80 1414.30 13.80L1414.30 13.80Q1383.10 13.80 1365.10 1.20Q1347.10-11.40 1347.10-35.10L1347.10-35.10Q1347.10-50.40 1355.20-61.95Q1363.30-73.50 1378.30-79.95Q1393.30-86.40 1413.70-86.40L1413.70-86.40Q1435-86.40 1452.40-81.90Q1469.80-77.40 1484.20-69.90Q1498.60-62.40 1509.85-53.55Q1521.10-44.70 1530.10-36.60L1530.10-36.60L1509.40-5.10Q1492.30-21.30 1476.10-33Q1459.90-44.70 1443.85-51Q1427.80-57.30 1410.70-57.30L1410.70-57.30Q1398.10-57.30 1390.15-52.50Q1382.20-47.70 1382.20-39L1382.20-39Q1382.20-30 1390.30-25.80Q1398.40-21.60 1410.10-21.60L1410.10-21.60Q1419.40-21.60 1424.80-24.75Q1430.20-27.90 1432.45-34.05Q1434.70-40.20 1434.70-48.90L1434.70-48.90Q1434.70-56.70 1434.10-69.30Q1433.50-81.90 1432.75-97.50Q1432-113.10 1431.40-130.05Q1430.80-147 1430.80-163.20L1430.80-163.20Q1430.80-180.30 1430.65-194.25Q1430.50-208.20 1430.50-215.10L1430.50-215.10Q1430.50-218.40 1429.90-224.40Q1429.30-230.40 1428.40-234.90L1428.40-234.90ZM1283.50-235.20L1324.90-231.60Q1324-228.60 1322.35-223.20Q1320.70-217.80 1319.65-212.70Q1318.60-207.60 1318-204.90L1318-204.90Q1316.50-198.60 1314.70-187.95Q1312.90-177.30 1310.95-163.95Q1309-150.60 1307.20-136.65Q1305.40-122.70 1304.50-110.25Q1303.60-97.80 1303.60-88.80L1303.60-88.80Q1303.60-84.30 1303.75-79.05Q1303.90-73.80 1304.80-69.30L1304.80-69.30Q1306.90-74.70 1309.15-79.80Q1311.40-84.90 1313.80-90Q1316.20-95.10 1318.30-100.20L1318.30-100.20L1336.60-85.20Q1332.40-72.90 1328.05-59.40Q1323.70-45.90 1320.25-33.90Q1316.80-21.90 1315-13.80L1315-13.80Q1314.40-10.80 1313.95-6.60Q1313.50-2.40 1313.50 0.30L1313.50 0.30Q1313.50 2.70 1313.65 6.15Q1313.80 9.60 1314.10 12.60L1314.10 12.60L1280.20 15.30Q1275.40-0.60 1271.80-25.35Q1268.20-50.10 1268.20-80.70L1268.20-80.70Q1268.20-97.50 1269.70-115.95Q1271.20-134.40 1273.15-151.50Q1275.10-168.60 1277.20-182.85Q1279.30-197.10 1280.50-205.80L1280.50-205.80Q1281.40-212.10 1282.30-220.05Q1283.20-228 1283.50-235.20L1283.50-235.20Z"/>
  <path d="M1561.10-147.90L1561.10-182.40L1839.80-182.40L1839.80-147.90L1561.10-147.90ZM1622.90 7.80L1622.90-27L1829.30-27L1829.30 7.80L1622.90 7.80ZM1697.30-66.90L1697.30-100.50L1774.10-100.50L1774.10-66.90L1697.30-66.90ZM1604.30 27L1604.30-245.70L1641.20-245.70L1641.20 27L1604.30 27ZM1682-54.60L1682-252.30L1718.60-252.30L1718.60-54.60L1682-54.60ZM1758.50-54.90L1758.50-249.30L1795.10-249.30L1795.10-54.90L1758.50-54.90Z"/>
  <path d="M2081.10-167.10L1939.20-167.10L1939.20-145.50L2081.10-145.50L2081.10-167.10ZM2081.10-215.70L1939.20-215.70L1939.20-194.10L2081.10-194.10L2081.10-215.70ZM1903.50-116.40L1903.50-244.80L2118.60-244.80L2118.60-116.40L1903.50-116.40ZM2021.10-124.50L2051.40-135.60Q2061.30-122.10 2076.75-110.40Q2092.20-98.70 2111.55-89.85Q2130.90-81 2151.90-75.90L2151.90-75.90Q2148-72.30 2143.50-66.90Q2139-61.50 2134.80-55.65Q2130.60-49.80 2127.90-45L2127.90-45Q2106-52.50 2086.05-64.05Q2066.10-75.60 2049.45-91.05Q2032.80-106.50 2021.10-124.50L2021.10-124.50ZM1969.50-135.60L1969.50-135.60L2001-123.30Q1989-106.20 1972.05-90.90Q1955.10-75.60 1935.15-63.60Q1915.20-51.60 1893.60-44.10L1893.60-44.10Q1891.20-48.60 1887-54Q1882.80-59.40 1878.30-64.80Q1873.80-70.20 1869.90-73.50L1869.90-73.50Q1890-79.50 1909.05-88.95Q1928.10-98.40 1943.85-110.40Q1959.60-122.40 1969.50-135.60ZM1948.20-61.50L1948.20-80.70L1985.10-80.70L1985.10-60Q1985.10-49.20 1982.70-37.05Q1980.30-24.90 1973.40-12.90Q1966.50-0.90 1952.85 9.90Q1939.20 20.70 1916.40 28.80L1916.40 28.80Q1914.30 24.30 1909.95 18.90Q1905.60 13.50 1900.80 8.25Q1896 3 1891.80-0.60L1891.80-0.60Q1910.70-6.60 1921.95-14.10Q1933.20-21.60 1938.75-29.70Q1944.30-37.80 1946.25-46.05Q1948.20-54.30 1948.20-61.50L1948.20-61.50ZM1991.70-131.10L1991.70-229.80L2028-229.80L2028-131.10L1991.70-131.10ZM2039.40 25.80L2039.40-80.10L2076.90-80.10L2076.90 25.80L2039.40 25.80Z"/>
</svg>