<svg xmlns="http://www.w3.org/2000/svg" fill="#0e7490" viewBox="22.2 -234 1758.4 246.3">
  <path d="M36.30-133.50L36.30-87.90L195-87.90L195-133.50L36.30-133.50ZM213.90-210L163.20-210L163.20 0L213.90 0L213.90-210ZM72.90-210L22.20-210L22.20 0L72.90 0L72.90-210Z"/>
  <path d="M333.70 3L333.70 3Q360.10 3 378.55-7.20Q397-17.40 407.80-37.80L407.80-37.80L367.30-47.70Q362.20-38.70 353.65-34.20Q345.10-29.70 333.10-29.70L333.10-29.70Q322.60-29.70 315.40-34.35Q308.20-39 304.60-48Q301-57 301-69.60L301-69.60Q301.30-83.40 304.75-92.55Q308.20-101.70 315.10-106.20Q322-110.70 332.20-110.70L332.20-110.70Q340.30-110.70 346.30-107.10Q352.30-103.50 355.60-96.90Q358.90-90.30 358.90-81.30L358.90-81.30Q358.90-79.20 357.85-76.05Q356.80-72.90 355.30-70.80L355.30-70.80L366.10-84.60L280.90-84.60L280.90-59.40L406.90-59.40Q407.50-61.50 407.50-64.65Q407.50-67.80 407.50-71.10L407.50-71.10Q407.50-93.30 398.80-108.90Q390.10-124.50 373.60-132.75Q357.10-141 333.10-141L333.10-141Q309.10-141 291.55-132.30Q274-123.60 264.70-107.40Q255.40-91.20 255.40-69L255.40-69Q255.40-47.10 265-30.90Q274.60-14.70 292.15-5.85Q309.70 3 333.70 3Z"/>
  <path d="M491-234L445.40-234L445.40 0L491 0L491-234Z"/>
  <path d="M582-234L536.40-234L536.40 0L582 0L582-234Z"/>
  <path d="M619.30-69L619.30-69Q619.30-47.40 629.50-31.20Q639.70-15 657.70-6Q675.70 3 698.20 3L698.20 3Q720.70 3 738.55-6Q756.40-15 766.75-31.20Q777.10-47.40 777.10-69L777.10-69Q777.10-90.90 766.75-107.10Q756.40-123.30 738.55-132.30Q720.70-141.30 698.20-141.30L698.20-141.30Q675.70-141.30 657.70-132.30Q639.70-123.30 629.50-107.10Q619.30-90.90 619.30-69ZM665.80-69L665.80-69Q665.80-79.80 670.30-87.60Q674.80-95.40 682-99.60Q689.20-103.80 698.20-103.80L698.20-103.80Q706.90-103.80 714.25-99.60Q721.60-95.40 725.95-87.60Q730.30-79.80 730.30-69L730.30-69Q730.30-58.20 725.95-50.55Q721.60-42.90 714.25-38.70Q706.90-34.50 698.20-34.50L698.20-34.50Q689.20-34.50 682-38.70Q674.80-42.90 670.30-50.55Q665.80-58.20 665.80-69Z"/>
  <path d=""/>
  <path d="M1154.40-210L1113.60-90.30L1056-220.50L999.00-90.30L957.60-210L897.60-210L988.50 12.30L1056-114.30L1123.80 12.30L1214.70-210L1154.40-210Z"/>
  <path d="M1211.50-69L1211.50-69Q1211.50-47.40 1221.70-31.20Q1231.90-15 1249.90-6Q1267.90 3 1290.40 3L1290.40 3Q1312.90 3 1330.75-6Q1348.60-15 1358.95-31.20Q1369.30-47.40 1369.30-69L1369.30-69Q1369.30-90.90 1358.95-107.10Q1348.60-123.30 1330.75-132.30Q1312.90-141.30 1290.40-141.30L1290.40-141.30Q1267.90-141.30 1249.90-132.30Q1231.90-123.30 1221.70-107.10Q1211.50-90.90 1211.50-69ZM1258-69L1258-69Q1258-79.80 1262.50-87.60Q1267-95.40 1274.20-99.60Q1281.40-103.80 1290.40-103.80L1290.40-103.80Q1299.10-103.80 1306.45-99.60Q1313.80-95.40 1318.15-87.60Q1322.50-79.80 1322.50-69L1322.50-69Q1322.50-58.20 1318.15-50.55Q1313.80-42.90 1306.45-38.70Q1299.10-34.50 1290.40-34.50L1290.40-34.50Q1281.40-34.50 1274.20-38.70Q1267-42.90 1262.50-50.55Q1258-58.20 1258-69Z"/>
  <path d="M1451.00 0L1451.00-138L1406.30-138L1406.30 0L1451.00 0ZM1490.90-91.20L1490.90-91.20L1510.40-129.90Q1506.80-135.30 1499.90-138.30Q1493.00-141.30 1485.50-141.30L1485.50-141.30Q1474.10-141.30 1463.60-133.80Q1453.10-126.30 1446.65-113.40Q1440.20-100.50 1440.20-84L1440.20-84L1451.00-68.10Q1451.00-78 1453.70-84.90Q1456.40-91.80 1461.50-95.40Q1466.60-99 1473.20-99L1473.20-99Q1479.20-99 1483.25-96.90Q1487.30-94.80 1490.90-91.20Z"/>
  <path d="M1585.20-234L1539.60-234L1539.60 0L1585.20 0L1585.20-234Z"/>
  <path d="M1780.60-234L1735.30-234L1735.30 0L1780.60 0L1780.60-234ZM1622.50-69L1622.50-69Q1622.50-45.90 1631.95-29.85Q1641.40-13.80 1656.40-5.40Q1671.40 3 1688.20 3L1688.20 3Q1705.60 3 1718.95-5.70Q1732.30-14.40 1740.10-30.60Q1747.90-46.80 1747.90-69L1747.90-69Q1747.90-91.50 1740.10-107.55Q1732.30-123.60 1718.95-132.30Q1705.60-141 1688.20-141L1688.20-141Q1671.40-141 1656.40-132.60Q1641.40-124.20 1631.95-108.30Q1622.50-92.40 1622.50-69ZM1670.20-69L1670.20-69Q1670.20-79.80 1674.70-87.75Q1679.20-95.70 1686.70-100.05Q1694.20-104.40 1703.20-104.40L1703.20-104.40Q1711-104.40 1718.35-100.20Q1725.70-96 1730.50-88.05Q1735.30-80.10 1735.30-69L1735.30-69Q1735.30-57.90 1730.50-49.95Q1725.70-42 1718.35-37.80Q1711-33.60 1703.20-33.60L1703.20-33.60Q1694.20-33.60 1686.70-37.95Q1679.20-42.30 1674.70-50.25Q1670.20-58.20 1670.20-69Z"/>
</svg>